SplitBean-Regular.ufo
<glyph name="exclam" format="1">
  <advance width="460"/>
  <unicode hex="0021"/>
  <outline>
    <contour>
      <point x="310" y="154" type="line"/>
      <point x="150" y="154" type="line"/>
      <point x="150" y="0" type="line"/>
      <point x="310" y="0" type="line"/>
    </contour>
    <contour>
      <point x="310" y="1400" type="line"/>
      <point x="150" y="1400" type="line"/>
      <point x="150" y="392" type="line"/>
      <point x="310" y="392" type="line"/>
    </contour>
  </outline>
</glyph>
<glyph name="numbersign" format="1">
  <advance width="1328"/>
  <unicode hex="0023"/>
  <outline>
    <contour>
      <point x="571" y="14" type="line"/>
      <point x="717" y="489" type="line"/>
      <point x="557" y="489" type="line"/>
      <point x="397" y="-32" type="line"/>
      <point x="247" y="14" type="line"/>
      <point x="393" y="489" type="line"/>
      <point x="100" y="489" type="line"/>
      <point x="100" y="646" type="line"/>
      <point x="441" y="646" type="line"/>
      <point x="481" y="776" type="line"/>
      <point x="214" y="776" type="line"/>
      <point x="214" y="933" type="line"/>
      <point x="530" y="933" type="line"/>
      <point x="684" y="1433" type="line"/>
      <point x="834" y="1387" type="line"/>
      <point x="694" y="933" type="line"/>
      <point x="854" y="933" type="line"/>
      <point x="1008" y="1433" type="line"/>
      <point x="1159" y="1387" type="line"/>
      <point x="1019" y="933" type="line"/>
      <point x="1228" y="933" type="line"/>
      <point x="1228" y="776" type="line"/>
      <point x="970" y="776" type="line"/>
      <point x="930" y="646" type="line"/>
      <point x="1130" y="646" type="line"/>
      <point x="1130" y="489" type="line"/>
      <point x="881" y="489" type="line"/>
      <point x="721" y="-32" type="line"/>
    </contour>
    <contour>
      <point x="765" y="646" type="line"/>
      <point x="806" y="776" type="line"/>
      <point x="646" y="776" type="line"/>
      <point x="606" y="646" type="line"/>
    </contour>
  </outline>
</glyph>
<glyph name="dollar" format="1">
  <advance width="857"/>
  <unicode hex="0024"/>
  <outline>
    <contour>
      <point x="534" y="132" type="line"/>
      <point x="534" y="-45" type="line"/>
      <point x="378" y="-45" type="line"/>
      <point x="378" y="177" type="line"/>
      <point x="55" y="270" type="line"/>
      <point x="99" y="420" type="line"/>
      <point x="378" y="340" type="line"/>
      <point x="378" y="671" type="line"/>
      <point x="105" y="1132" type="line"/>
      <point x="328" y="1264" type="line"/>
      <point x="378" y="1253" type="line"/>
      <point x="378" y="1445" type="line"/>
      <point x="534" y="1445" type="line"/>
      <point x="534" y="1220" type="line"/>
      <point x="786" y="1167" type="line"/>
      <point x="754" y="1015" type="line"/>
      <point x="534" y="1061" type="line"/>
      <point x="534" y="714" type="line"/>
      <point x="802" y="261" type="line"/>
      <point x="579" y="119" type="line"/>
    </contour>
    <contour>
      <point x="378" y="1094" type="line"/>
      <point x="355" y="1098" type="line"/>
      <point x="294" y="1071" type="line"/>
      <point x="378" y="910" type="line"/>
    </contour>
    <contour>
      <point x="590" y="311" type="line"/>
      <point x="534" y="406" type="line"/>
      <point x="534" y="295" type="line"/>
      <point x="555" y="289" type="line"/>
    </contour>
  </outline>
</glyph>
<glyph name="percent" format="1">
  <advance width="1453"/>
  <unicode hex="0025"/>
  <outline>
    <contour>
      <point x="831" y="300" type="curve" smooth="yes"/>
      <point x="831" y="156"/>
      <point x="948" y="39"/>
      <point x="1092" y="39" type="curve" smooth="yes"/>
      <point x="1236" y="39"/>
      <point x="1353" y="156"/>
      <point x="1353" y="300" type="curve" smooth="yes"/>
      <point x="1353" y="444"/>
      <point x="1236" y="561"/>
      <point x="1092" y="561" type="curve" smooth="yes"/>
      <point x="948" y="561"/>
      <point x="831" y="444"/>
    </contour>
    <contour>
      <point x="970" y="300" type="curve" smooth="yes"/>
      <point x="970" y="367"/>
      <point x="1025" y="422"/>
      <point x="1092" y="422" type="curve" smooth="yes"/>
      <point x="1159" y="422"/>
      <point x="1214" y="367"/>
      <point x="1214" y="300" type="curve" smooth="yes"/>
      <point x="1214" y="232"/>
      <point x="1159" y="177"/>
      <point x="1092" y="177" type="curve" smooth="yes"/>
      <point x="1025" y="177"/>
      <point x="970" y="232"/>
    </contour>
    <contour>
      <point x="100" y="1098" type="curve" smooth="yes"/>
      <point x="100" y="954"/>
      <point x="217" y="837"/>
      <point x="361" y="837" type="curve" smooth="yes"/>
      <point x="505" y="837"/>
      <point x="622" y="954"/>
      <point x="622" y="1098" type="curve" smooth="yes"/>
      <point x="622" y="1242"/>
      <point x="505" y="1359"/>
      <point x="361" y="1359" type="curve" smooth="yes"/>
      <point x="217" y="1359"/>
      <point x="100" y="1242"/>
    </contour>
    <contour>
      <point x="239" y="1098" type="curve" smooth="yes"/>
      <point x="239" y="1166"/>
      <point x="293" y="1220"/>
      <point x="361" y="1220" type="curve" smooth="yes"/>
      <point x="428" y="1220"/>
      <point x="483" y="1166"/>
      <point x="483" y="1098" type="curve" smooth="yes"/>
      <point x="483" y="1031"/>
      <point x="428" y="976"/>
      <point x="361" y="976" type="curve" smooth="yes"/>
      <point x="293" y="976"/>
      <point x="239" y="1031"/>
    </contour>
    <component base="fraction" xOffset="346"/>
  </outline>
</glyph>
<glyph name="ampersand" format="1">
  <advance width="635"/>
  <unicode hex="0026"/>
  <outline>
    <contour>
      <point x="537" y="814" type="line"/>
      <point x="444" y="945" type="line"/>
      <point x="362" y="887" type="line"/>
      <point x="239" y="911" type="line"/>
      <point x="239" y="1014" type="line"/>
      <point x="500" y="1057" type="line"/>
      <point x="500" y="1363" type="line"/>
      <point x="266" y="1445" type="line"/>
      <point x="78" y="1375" type="line"/>
      <point x="78" y="780" type="line"/>
      <point x="399" y="718" type="line"/>
    </contour>
    <contour>
      <point x="268" y="1275" type="line"/>
      <point x="341" y="1250" type="line"/>
      <point x="341" y="1193" type="line"/>
      <point x="239" y="1177" type="line"/>
      <point x="239" y="1264" type="line"/>
    </contour>
    <contour>
      <point x="565" y="438" type="line"/>
      <point x="397" y="438" type="line"/>
      <point x="397" y="-77" type="line"/>
      <point x="238" y="-77" type="line"/>
      <point x="238" y="438" type="line"/>
      <point x="70" y="438" type="line"/>
      <point x="70" y="597" type="line"/>
      <point x="565" y="597" type="line"/>
    </contour>
  </outline>
</glyph>
<glyph name="quotesingle" format="1">
  <advance width="270"/>
  <unicode hex="0027"/>
  <outline>
    <contour>
      <point x="215" y="1445" type="line"/>
      <point x="55" y="1445" type="line"/>
      <point x="55" y="1153" type="line"/>
      <point x="215" y="1153" type="line"/>
    </contour>
  </outline>
</glyph>
<glyph name="parenleft" format="1">
  <advance width="615"/>
  <unicode hex="0028"/>
  <outline>
    <contour>
      <point x="462" y="1445" type="line"/>
      <point x="150" y="1338" type="line"/>
      <point x="150" y="52" type="line"/>
      <point x="476" y="-45" type="line"/>
      <point x="520" y="109" type="line"/>
      <point x="310" y="172" type="line"/>
      <point x="310" y="1222" type="line"/>
      <point x="514" y="1293" type="line"/>
    </contour>
  </outline>
</glyph>
<glyph name="asterisk" format="1">
  <advance width="820"/>
  <unicode hex="002A"/>
  <outline>
    <contour>
      <point x="572" y="476" type="line"/>
      <point x="460" y="616" type="line"/>
      <point x="479" y="431" type="line"/>
      <point x="341" y="431" type="line"/>
      <point x="360" y="616" type="line"/>
      <point x="248" y="476" type="line"/>
      <point x="165" y="559" type="line"/>
      <point x="305" y="671" type="line"/>
      <point x="120" y="652" type="line"/>
      <point x="120" y="790" type="line"/>
      <point x="305" y="771" type="line"/>
      <point x="165" y="883" type="line"/>
      <point x="248" y="966" type="line"/>
      <point x="360" y="826" type="line"/>
      <point x="341" y="1011" type="line"/>
      <point x="479" y="1011" type="line"/>
      <point x="460" y="826" type="line"/>
      <point x="572" y="966" type="line"/>
      <point x="655" y="883" type="line"/>
      <point x="515" y="771" type="line"/>
      <point x="700" y="790" type="line"/>
      <point x="700" y="652" type="line"/>
      <point x="515" y="671" type="line"/>
      <point x="655" y="559" type="line"/>
    </contour>
  </outline>
</glyph>
<glyph name="plus" format="1">
  <advance width="820"/>
  <unicode hex="002B"/>
  <outline>
    <contour>
      <point x="329" y="790" type="line"/>
      <point x="329" y="998" type="line"/>
      <point x="491" y="998" type="line"/>
      <point x="491" y="790" type="line"/>
      <point x="700" y="790" type="line"/>
      <point x="700" y="627" type="line"/>
      <point x="491" y="627" type="line"/>
      <point x="491" y="419" type="line"/>
      <point x="329" y="419" type="line"/>
      <point x="329" y="627" type="line"/>
      <point x="120" y="627" type="line"/>
      <point x="120" y="790" type="line"/>
    </contour>
  </outline>
</glyph>
<glyph name="comma" format="1">
  <advance width="381"/>
  <unicode hex="002C"/>
  <outline>
    <contour>
      <point x="271" y="39" type="line"/>
      <point x="271" y="155" type="line"/>
      <point x="131" y="155" type="line"/>
      <point x="131" y="87" type="line"/>
      <point x="29" y="-43" type="line"/>
      <point x="139" y="-129" type="line"/>
    </contour>
  </outline>
</glyph>
<glyph name="hyphen" format="1">
  <advance width="719"/>
  <unicode hex="002D"/>
  <outline>
    <contour>
      <point x="649" y="790" type="line"/>
      <point x="70" y="790" type="line"/>
      <point x="70" y="627" type="line"/>
      <point x="649" y="627" type="line"/>
    </contour>
  </outline>
</glyph>
<glyph name="period" format="1">
  <advance width="381"/>
  <unicode hex="002E"/>
  <outline>
    <contour>
      <point x="271" y="154" type="line"/>
      <point x="110" y="154" type="line"/>
      <point x="110" y="0" type="line"/>
      <point x="271" y="0" type="line"/>
    </contour>
  </outline>
</glyph>
<glyph name="slash" format="1">
  <advance width="714"/>
  <unicode hex="002F"/>
  <outline>
    <contour>
      <point x="619" y="1392" type="line"/>
      <point x="247" y="-32" type="line"/>
      <point x="95" y="8" type="line"/>
      <point x="466" y="1432" type="line"/>
    </contour>
  </outline>
</glyph>
<glyph name="zero" format="1">
  <advance width="1020"/>
  <unicode hex="0030"/>
  <outline>
    <contour>
      <point x="828" y="50" type="line"/>
      <point x="519" y="-45" type="line"/>
      <point x="191" y="15" type="line"/>
      <point x="191" y="1334" type="line"/>
      <point x="437" y="1445" type="line"/>
      <point x="828" y="1344" type="line"/>
    </contour>
    <contour>
      <point x="668" y="1220" type="line"/>
      <point x="452" y="1276" type="line"/>
      <point x="351" y="1231" type="line"/>
      <point x="351" y="149" type="line"/>
      <point x="509" y="119" type="line"/>
      <point x="668" y="168" type="line"/>
    </contour>
  </outline>
</glyph>
<glyph name="one" format="1">
  <advance width="508"/>
  <unicode hex="0031"/>
  <outline>
    <contour>
      <point x="408" y="1373" type="line"/>
      <point x="408" y="0" type="line"/>
      <point x="248" y="0" type="line"/>
      <point x="248" y="1245" type="line"/>
      <point x="110" y="1178" type="line"/>
      <point x="40" y="1322" type="line"/>
      <point x="293" y="1445" type="line"/>
    </contour>
  </outline>
</glyph>
<glyph name="two" format="1">
  <advance width="763"/>
  <unicode hex="0032"/>
  <outline>
    <contour>
      <point x="712" y="1315" type="line"/>
      <point x="712" y="633" type="line"/>
      <point x="213" y="357" type="line"/>
      <point x="213" y="160" type="line"/>
      <point x="702" y="160" type="line"/>
      <point x="702" y="0" type="line"/>
      <point x="53" y="0" type="line"/>
      <point x="53" y="452" type="line"/>
      <point x="552" y="728" type="line"/>
      <point x="552" y="1193" type="line"/>
      <point x="278" y="1271" type="line"/>
      <point x="132" y="1185" type="line"/>
      <point x="50" y="1324" type="line"/>
      <point x="255" y="1445" type="line"/>
    </contour>
  </outline>
</glyph>
<glyph name="three" format="1">
  <advance width="855"/>
  <unicode hex="0033"/>
  <outline>
    <contour>
      <point x="755" y="90" type="line"/>
      <point x="519" y="-45" type="line"/>
      <point x="50" y="59" type="line"/>
      <point x="79" y="210" type="line"/>
      <point x="492" y="116" type="line"/>
      <point x="601" y="179" type="line"/>
      <point x="601" y="636" type="line"/>
      <point x="263" y="636" type="line"/>
      <point x="263" y="790" type="line"/>
      <point x="601" y="790" type="line"/>
      <point x="601" y="1221" type="line"/>
      <point x="492" y="1284" type="line"/>
      <point x="118" y="1190" type="line"/>
      <point x="89" y="1341" type="line"/>
      <point x="519" y="1445" type="line"/>
      <point x="755" y="1310" type="line"/>
    </contour>
  </outline>
</glyph>
<glyph name="four" format="1">
  <advance width="945"/>
  <unicode hex="0034"/>
  <outline>
    <contour>
      <point x="845" y="1393" type="line"/>
      <point x="845" y="0" type="line"/>
      <point x="678" y="0" type="line"/>
      <point x="678" y="559" type="line"/>
      <point x="321" y="495" type="line"/>
      <point x="40" y="626" type="line"/>
      <point x="697" y="1445" type="line"/>
    </contour>
    <contour>
      <point x="302" y="687" type="line"/>
      <point x="343" y="668" type="line"/>
      <point x="678" y="727" type="line"/>
      <point x="678" y="1156" type="line"/>
    </contour>
  </outline>
</glyph>
<glyph name="five" format="1">
  <advance width="884"/>
  <unicode hex="0035"/>
  <outline>
    <contour>
      <point x="799" y="790" type="line"/>
      <point x="784" y="51" type="line"/>
      <point x="475" y="-45" type="line"/>
      <point x="92" y="41" type="line"/>
      <point x="127" y="198" type="line"/>
      <point x="468" y="121" type="line"/>
      <point x="626" y="170" type="line"/>
      <point x="635" y="630" type="line"/>
      <point x="90" y="630" type="line"/>
      <point x="90" y="1400" type="line"/>
      <point x="759" y="1400" type="line"/>
      <point x="759" y="1240" type="line"/>
      <point x="250" y="1240" type="line"/>
      <point x="250" y="790" type="line"/>
    </contour>
  </outline>
</glyph>
<glyph name="six" format="1">
  <advance width="919"/>
  <unicode hex="0036"/>
  <outline>
    <contour>
      <point x="834" y="790" type="line"/>
      <point x="834" y="64" type="line"/>
      <point x="591" y="-45" type="line"/>
      <point x="100" y="50" type="line"/>
      <point x="100" y="1400" type="line"/>
      <point x="805" y="1400" type="line"/>
      <point x="805" y="1240" type="line"/>
      <point x="260" y="1240" type="line"/>
      <point x="260" y="790" type="line"/>
    </contour>
    <contour>
      <point x="260" y="182" type="line"/>
      <point x="571" y="122" type="line"/>
      <point x="674" y="168" type="line"/>
      <point x="674" y="630" type="line"/>
      <point x="260" y="630" type="line"/>
    </contour>
  </outline>
</glyph>
<glyph name="seven" format="1">
  <advance width="845"/>
  <unicode hex="0037"/>
  <outline>
    <contour>
      <point x="648" y="788" type="line"/>
      <point x="720" y="822" type="line"/>
      <point x="788" y="676" type="line"/>
      <point x="596" y="587" type="line"/>
      <point x="441" y="-19" type="line"/>
      <point x="289" y="20" type="line"/>
      <point x="439" y="608" type="line"/>
      <point x="239" y="640" type="line"/>
      <point x="265" y="798" type="line"/>
      <point x="479" y="764" type="line"/>
      <point x="602" y="1243" type="line"/>
      <point x="40" y="1243" type="line"/>
      <point x="40" y="1400" type="line"/>
      <point x="805" y="1400" type="line"/>
    </contour>
  </outline>
</glyph>
<glyph name="eight" format="1">
  <advance width="919"/>
  <unicode hex="0038"/>
  <outline>
    <contour>
      <point x="147" y="1385" type="line"/>
      <point x="460" y="1445" type="line"/>
      <point x="772" y="1385" type="line"/>
      <point x="772" y="637" type="line"/>
      <point x="715" y="610" type="line"/>
      <point x="829" y="564" type="line"/>
      <point x="829" y="0" type="line"/>
      <point x="90" y="0" type="line"/>
      <point x="90" y="564" type="line"/>
      <point x="204" y="610" type="line"/>
      <point x="147" y="637" type="line"/>
    </contour>
    <contour>
      <point x="303" y="1256" type="line"/>
      <point x="303" y="736" type="line"/>
      <point x="460" y="677" type="line"/>
      <point x="616" y="736" type="line"/>
      <point x="616" y="1256" type="line"/>
      <point x="460" y="1284" type="line"/>
    </contour>
    <contour>
      <point x="246" y="459" type="line"/>
      <point x="246" y="156" type="line"/>
      <point x="673" y="156" type="line"/>
      <point x="673" y="459" type="line"/>
      <point x="460" y="532" type="line"/>
    </contour>
  </outline>
</glyph>
<glyph name="nine" format="1">
  <advance width="1020"/>
  <unicode hex="0039"/>
  <outline>
    <contour>
      <point x="509" y="-45" type="line"/>
      <point x="187" y="14" type="line"/>
      <point x="217" y="172" type="line"/>
      <point x="500" y="119" type="line"/>
      <point x="658" y="168" type="line"/>
      <point x="658" y="629" type="line"/>
      <point x="182" y="629" type="line"/>
      <point x="182" y="1334" type="line"/>
      <point x="428" y="1445" type="line"/>
      <point x="818" y="1344" type="line"/>
      <point x="818" y="50" type="line"/>
    </contour>
    <contour>
      <point x="658" y="790" type="line"/>
      <point x="658" y="1220" type="line"/>
      <point x="442" y="1276" type="line"/>
      <point x="342" y="1231" type="line"/>
      <point x="342" y="790" type="line"/>
    </contour>
  </outline>
</glyph>
<glyph name="colon" format="1">
  <advance width="381"/>
  <unicode hex="003A"/>
  <outline>
    <contour>
      <point x="271" y="790" type="line"/>
      <point x="110" y="790" type="line"/>
      <point x="110" y="636" type="line"/>
      <point x="271" y="636" type="line"/>
    </contour>
    <contour>
      <point x="271" y="154" type="line"/>
      <point x="110" y="154" type="line"/>
      <point x="110" y="0" type="line"/>
      <point x="271" y="0" type="line"/>
    </contour>
  </outline>
</glyph>
<glyph name="semicolon" format="1">
  <advance width="260"/>
  <unicode hex="003B"/>
  <outline>
    <contour>
      <point x="200" y="790" type="line"/>
      <point x="39" y="790" type="line"/>
      <point x="39" y="636" type="line"/>
      <point x="200" y="636" type="line"/>
    </contour>
    <contour>
      <point x="200" y="39" type="line"/>
      <point x="200" y="155" type="line"/>
      <point x="60" y="155" type="line"/>
      <point x="60" y="87" type="line"/>
      <point x="-42" y="-43" type="line"/>
      <point x="68" y="-129" type="line"/>
    </contour>
  </outline>
</glyph>
<glyph name="less" format="1">
  <advance width="820"/>
  <unicode hex="003C"/>
  <outline>
    <contour>
      <point x="660" y="337" type="line"/>
      <point x="375" y="628" type="line"/>
      <point x="662" y="921" type="line"/>
      <point x="546" y="1034" type="line"/>
      <point x="148" y="628" type="line"/>
      <point x="544" y="224" type="line"/>
    </contour>
  </outline>
</glyph>
<glyph name="equal" format="1">
  <advance width="820"/>
  <unicode hex="003D"/>
  <outline>
    <contour>
      <point x="700" y="790" type="line"/>
      <point x="120" y="790" type="line"/>
      <point x="120" y="627" type="line"/>
      <point x="700" y="627" type="line"/>
    </contour>
    <contour>
      <point x="700" y="441" type="line"/>
      <point x="120" y="441" type="line"/>
      <point x="120" y="279" type="line"/>
      <point x="700" y="279" type="line"/>
    </contour>
  </outline>
</glyph>
<glyph name="question" format="1">
  <advance width="921"/>
  <unicode hex="003F"/>
  <outline>
    <contour>
      <point x="513" y="630" type="line"/>
      <point x="791" y="630" type="line"/>
      <point x="791" y="1344" type="line"/>
      <point x="401" y="1445" type="line"/>
      <point x="100" y="1308" type="line"/>
      <point x="166" y="1162" type="line"/>
      <point x="415" y="1275" type="line"/>
      <point x="631" y="1220" type="line"/>
      <point x="631" y="790" type="line"/>
      <point x="353" y="790" type="line"/>
      <point x="353" y="392" type="line"/>
      <point x="513" y="392" type="line"/>
    </contour>
    <contour>
      <point x="503" y="154" type="line"/>
      <point x="343" y="154" type="line"/>
      <point x="343" y="0" type="line"/>
      <point x="503" y="0" type="line"/>
    </contour>
  </outline>
</glyph>
<glyph name="at" format="1">
  <advance width="1171"/>
  <unicode hex="0040"/>
  <outline>
    <contour>
      <point x="956" y="47" type="line"/>
      <point x="888" y="192" type="line"/>
      <point x="734" y="120" type="line"/>
      <point x="261" y="183" type="line"/>
      <point x="261" y="1210" type="line"/>
      <point x="407" y="1278" type="line"/>
      <point x="920" y="1193" type="line"/>
      <point x="920" y="594" type="line"/>
      <point x="840" y="552" type="line"/>
      <point x="840" y="962" type="line"/>
      <point x="672" y="1022" type="line"/>
      <point x="354" y="940" type="line"/>
      <point x="354" y="396" type="line"/>
      <point x="760" y="329" type="line"/>
      <point x="1081" y="497" type="line"/>
      <point x="1081" y="1328" type="line"/>
      <point x="384" y="1445" type="line"/>
      <point x="100" y="1311" type="line"/>
      <point x="100" y="43" type="line"/>
      <point x="759" y="-45" type="line"/>
    </contour>
    <contour>
      <point x="514" y="817" type="line"/>
      <point x="665" y="856" type="line"/>
      <point x="680" y="850" type="line"/>
      <point x="680" y="505" type="line"/>
      <point x="514" y="532" type="line"/>
    </contour>
  </outline>
</glyph>
<glyph name="A" format="1">
  <advance width="1005"/>
  <unicode hex="0041"/>
  <outline>
    <contour>
      <point x="905" y="1324" type="line"/>
      <point x="905" y="0" type="line"/>
      <point x="745" y="0" type="line"/>
      <point x="745" y="544" type="line"/>
      <point x="661" y="505" type="line"/>
      <point x="261" y="569" type="line"/>
      <point x="261" y="0" type="line"/>
      <point x="100" y="0" type="line"/>
      <point x="100" y="1306" type="line"/>
      <point x="343" y="1445" type="line"/>
    </contour>
    <contour>
      <point x="261" y="1213" type="line"/>
      <point x="261" y="732" type="line"/>
      <point x="637" y="671" type="line"/>
      <point x="745" y="721" type="line"/>
      <point x="745" y="1195" type="line"/>
      <point x="369" y="1276" type="line"/>
    </contour>
  </outline>
</glyph>
<glyph name="B" format="1">
  <advance width="1132"/>
  <unicode hex="0042"/>
  <outline>
    <contour>
      <point x="1007" y="545" type="line"/>
      <point x="1007" y="0" type="line"/>
      <point x="150" y="0" type="line"/>
      <point x="150" y="1308" type="line"/>
      <point x="390" y="1445" type="line"/>
      <point x="951" y="1327" type="line"/>
      <point x="951" y="617" type="line"/>
      <point x="893" y="590" type="line"/>
    </contour>
    <contour>
      <point x="668" y="512" type="line"/>
      <point x="668" y="656" type="line"/>
      <point x="795" y="717" type="line"/>
      <point x="795" y="1198" type="line"/>
      <point x="418" y="1281" type="line"/>
      <point x="307" y="1217" type="line"/>
      <point x="307" y="156" type="line"/>
      <point x="851" y="156" type="line"/>
      <point x="851" y="439" type="line"/>
    </contour>
  </outline>
</glyph>
<glyph name="C" format="1">
  <advance width="905"/>
  <unicode hex="0043"/>
  <outline>
    <contour>
      <point x="477" y="0" type="move" name="BCenter"/>
    </contour>
    <contour>
      <point x="260" y="160" type="line"/>
      <point x="854" y="160" type="line"/>
      <point x="854" y="0" type="line"/>
      <point x="100" y="0" type="line"/>
      <point x="100" y="1306" type="line"/>
      <point x="342" y="1445" type="line"/>
      <point x="860" y="1338" type="line"/>
      <point x="827" y="1181" type="line"/>
      <point x="369" y="1276" type="line"/>
      <point x="260" y="1213" type="line"/>
    </contour>
  </outline>
</glyph>
<glyph name="D" format="1">
  <advance width="1028"/>
  <unicode hex="0044"/>
  <outline>
    <contour>
      <point x="678" y="1216" type="line"/>
      <point x="822" y="425" type="line"/>
      <point x="719" y="160" type="line"/>
      <point x="260" y="160" type="line"/>
      <point x="260" y="1215" type="line"/>
      <point x="371" y="1278" type="line"/>
    </contour>
    <contour>
      <point x="342" y="1446" type="line"/>
      <point x="100" y="1306" type="line"/>
      <point x="100" y="0" type="line"/>
      <point x="827" y="0" type="line"/>
      <point x="988" y="411" type="line"/>
      <point x="816" y="1350" type="line"/>
    </contour>
  </outline>
</glyph>
<glyph name="E" format="1">
  <advance width="894"/>
  <unicode hex="0045"/>
  <outline>
    <contour>
      <point x="836" y="153" type="line"/>
      <point x="836" y="0" type="line"/>
      <point x="100" y="0" type="line"/>
      <point x="100" y="1310" type="line"/>
      <point x="336" y="1445" type="line"/>
      <point x="844" y="1341" type="line"/>
      <point x="815" y="1190" type="line"/>
      <point x="363" y="1284" type="line"/>
      <point x="253" y="1221" type="line"/>
      <point x="253" y="790" type="line"/>
      <point x="768" y="790" type="line"/>
      <point x="768" y="636" type="line"/>
      <point x="253" y="636" type="line"/>
      <point x="253" y="153" type="line"/>
    </contour>
  </outline>
</glyph>
<glyph name="F" format="1">
  <advance width="884"/>
  <unicode hex="0046"/>
  <outline>
    <contour>
      <point x="254" y="0" type="line"/>
      <point x="100" y="0" type="line"/>
      <point x="100" y="1310" type="line"/>
      <point x="336" y="1445" type="line"/>
      <point x="844" y="1341" type="line"/>
      <point x="815" y="1190" type="line"/>
      <point x="364" y="1284" type="line"/>
      <point x="254" y="1221" type="line"/>
      <point x="254" y="790" type="line"/>
      <point x="768" y="790" type="line"/>
      <point x="768" y="636" type="line"/>
      <point x="254" y="636" type="line"/>
    </contour>
  </outline>
</glyph>
<glyph name="G" format="1">
  <advance width="953"/>
  <unicode hex="0047"/>
  <outline>
    <contour>
      <point x="873" y="64" type="line"/>
      <point x="873" y="703" type="line"/>
      <point x="454" y="703" type="line"/>
      <point x="454" y="543" type="line"/>
      <point x="713" y="543" type="line"/>
      <point x="713" y="168" type="line"/>
      <point x="610" y="121" type="line"/>
      <point x="260" y="183" type="line"/>
      <point x="260" y="1217" type="line"/>
      <point x="373" y="1277" type="line"/>
      <point x="828" y="1187" type="line"/>
      <point x="859" y="1344" type="line"/>
      <point x="349" y="1445" type="line"/>
      <point x="100" y="1314" type="line"/>
      <point x="100" y="49" type="line"/>
      <point x="630" y="-45" type="line"/>
    </contour>
  </outline>
</glyph>
<glyph name="H" format="1">
  <advance width="1027"/>
  <unicode hex="0048"/>
  <outline>
    <contour>
      <point x="927" y="0" type="line"/>
      <point x="767" y="0" type="line"/>
      <point x="767" y="544" type="line"/>
      <point x="683" y="505" type="line"/>
      <point x="266" y="569" type="line"/>
      <point x="266" y="0" type="line"/>
      <point x="100" y="0" type="line"/>
      <point x="100" y="1400" type="line"/>
      <point x="266" y="1400" type="line"/>
      <point x="266" y="731" type="line"/>
      <point x="659" y="671" type="line"/>
      <point x="767" y="721" type="line"/>
      <point x="767" y="1400" type="line"/>
      <point x="927" y="1400" type="line"/>
    </contour>
  </outline>
</glyph>
<glyph name="I" format="1">
  <advance width="360"/>
  <unicode hex="0049"/>
  <outline>
    <contour>
      <point x="260" y="1400" type="line"/>
      <point x="100" y="1400" type="line"/>
      <point x="100" y="0" type="line"/>
      <point x="260" y="0" type="line"/>
    </contour>
  </outline>
</glyph>
<glyph name="J" format="1">
  <advance width="768"/>
  <unicode hex="004A"/>
  <outline>
    <contour>
      <point x="668" y="109" type="line"/>
      <point x="668" y="1400" type="line"/>
      <point x="512" y="1400" type="line"/>
      <point x="512" y="194" type="line"/>
      <point x="400" y="123" type="line"/>
      <point x="63" y="209" type="line"/>
      <point x="25" y="57" type="line"/>
      <point x="428" y="-45" type="line"/>
    </contour>
  </outline>
</glyph>
<glyph name="K" format="1">
  <advance width="874"/>
  <unicode hex="004B"/>
  <outline>
    <contour>
      <point x="849" y="0" type="line"/>
      <point x="689" y="0" type="line"/>
      <point x="689" y="497" type="line"/>
      <point x="400" y="630" type="line"/>
      <point x="260" y="630" type="line"/>
      <point x="260" y="0" type="line"/>
      <point x="100" y="0" type="line"/>
      <point x="100" y="1400" type="line"/>
      <point x="260" y="1400" type="line"/>
      <point x="260" y="790" type="line"/>
      <point x="517" y="790" type="line"/>
      <point x="625" y="841" type="line"/>
      <point x="625" y="1400" type="line"/>
      <point x="790" y="1400" type="line"/>
      <point x="790" y="741" type="line"/>
      <point x="774" y="734" type="line"/>
      <point x="678" y="678" type="line"/>
      <point x="849" y="599" type="line"/>
    </contour>
  </outline>
</glyph>
<glyph name="L" format="1">
  <advance width="880"/>
  <unicode hex="004C"/>
  <outline>
    <contour>
      <point x="855" y="156" type="line"/>
      <point x="256" y="156" type="line"/>
      <point x="256" y="1400" type="line"/>
      <point x="100" y="1400" type="line"/>
      <point x="100" y="0" type="line"/>
      <point x="855" y="0" type="line"/>
    </contour>
  </outline>
</glyph>
<glyph name="M" format="1">
  <advance width="1141"/>
  <unicode hex="004D"/>
  <outline>
    <contour>
      <point x="100" y="1402" type="line"/>
      <point x="100" y="0" type="line"/>
      <point x="260" y="0" type="line"/>
      <point x="260" y="1084" type="line"/>
      <point x="500" y="637" type="line"/>
      <point x="641" y="637" type="line"/>
      <point x="881" y="1084" type="line"/>
      <point x="881" y="0" type="line"/>
      <point x="1041" y="0" type="line"/>
      <point x="1041" y="1402" type="line"/>
      <point x="891" y="1440" type="line"/>
      <point x="571" y="844" type="line"/>
      <point x="251" y="1440" type="line"/>
    </contour>
  </outline>
</glyph>
<glyph name="N" format="1">
  <advance width="1047"/>
  <unicode hex="004E"/>
  <outline>
    <contour>
      <point x="947" y="0" type="line"/>
      <point x="947" y="1400" type="line"/>
      <point x="787" y="1400" type="line"/>
      <point x="787" y="344" type="line"/>
      <point x="252" y="1430" type="line"/>
      <point x="100" y="1395" type="line"/>
      <point x="100" y="0" type="line"/>
      <point x="260" y="0" type="line"/>
      <point x="260" y="1050" type="line"/>
      <point x="795" y="-36" type="line"/>
    </contour>
  </outline>
</glyph>
<glyph name="O" format="1">
  <advance width="1163"/>
  <unicode hex="004F"/>
  <outline>
    <contour>
      <point x="150" y="1319" type="line"/>
      <point x="150" y="59" type="line"/>
      <point x="770" y="-45" type="line"/>
      <point x="1013" y="82" type="line"/>
      <point x="1013" y="1342" type="line"/>
      <point x="393" y="1445" type="line"/>
    </contour>
    <contour>
      <point x="310" y="1221" type="line"/>
      <point x="419" y="1278" type="line"/>
      <point x="853" y="1206" type="line"/>
      <point x="853" y="179" type="line"/>
      <point x="744" y="122" type="line"/>
      <point x="310" y="195" type="line"/>
    </contour>
  </outline>
</glyph>
<glyph name="P" format="1">
  <advance width="994"/>
  <unicode hex="0050"/>
  <outline>
    <contour>
      <point x="260" y="570" type="line"/>
      <point x="680" y="505" type="line"/>
      <point x="924" y="619" type="line"/>
      <point x="924" y="1325" type="line"/>
      <point x="343" y="1445" type="line"/>
      <point x="100" y="1306" type="line"/>
      <point x="100" y="0" type="line"/>
      <point x="260" y="0" type="line"/>
    </contour>
    <contour>
      <point x="260" y="1213" type="line"/>
      <point x="370" y="1276" type="line"/>
      <point x="764" y="1194" type="line"/>
      <point x="764" y="721" type="line"/>
      <point x="657" y="671" type="line"/>
      <point x="260" y="732" type="line"/>
    </contour>
  </outline>
</glyph>
<glyph name="Q" format="1">
  <advance width="1063"/>
  <unicode hex="0051"/>
  <outline>
    <contour>
      <point x="100" y="1319" type="line"/>
      <point x="100" y="59" type="line"/>
      <point x="720" y="-45" type="line"/>
      <point x="963" y="82" type="line"/>
      <point x="963" y="1342" type="line"/>
      <point x="343" y="1445" type="line"/>
    </contour>
    <contour>
      <point x="260" y="1221" type="line"/>
      <point x="369" y="1278" type="line"/>
      <point x="803" y="1206" type="line"/>
      <point x="803" y="179" type="line"/>
      <point x="774" y="164" type="line"/>
      <point x="598" y="515" type="line"/>
      <point x="454" y="444" type="line"/>
      <point x="606" y="137" type="line"/>
      <point x="260" y="195" type="line"/>
    </contour>
  </outline>
</glyph>
<glyph name="R" format="1">
  <advance width="1123"/>
  <unicode hex="0052"/>
  <outline>
    <contour>
      <point x="1038" y="53" type="line"/>
      <point x="894" y="-18" type="line"/>
      <point x="626" y="519" type="line"/>
      <point x="310" y="569" type="line"/>
      <point x="310" y="0" type="line"/>
      <point x="150" y="0" type="line"/>
      <point x="150" y="1306" type="line"/>
      <point x="392" y="1445" type="line"/>
      <point x="954" y="1324" type="line"/>
      <point x="954" y="619" type="line"/>
      <point x="792" y="544" type="line"/>
    </contour>
    <contour>
      <point x="687" y="671" type="line"/>
      <point x="794" y="721" type="line"/>
      <point x="794" y="1195" type="line"/>
      <point x="419" y="1276" type="line"/>
      <point x="310" y="1213" type="line"/>
      <point x="310" y="732" type="line"/>
    </contour>
  </outline>
</glyph>
<glyph name="S" format="1">
  <advance width="991"/>
  <unicode hex="0053"/>
  <outline>
    <contour>
      <point x="931" y="122" type="line"/>
      <point x="663" y="-49" type="line"/>
      <point x="147" y="87" type="line"/>
      <point x="186" y="238" type="line"/>
      <point x="637" y="119" type="line"/>
      <point x="720" y="173" type="line"/>
      <point x="60" y="1290" type="line"/>
      <point x="329" y="1449" type="line"/>
      <point x="801" y="1347" type="line"/>
      <point x="768" y="1194" type="line"/>
      <point x="356" y="1284" type="line"/>
      <point x="273" y="1235" type="line"/>
    </contour>
  </outline>
</glyph>
<glyph name="T" format="1">
  <advance width="685"/>
  <unicode hex="0054"/>
  <outline>
    <contour>
      <point x="422" y="1249" type="line"/>
      <point x="422" y="0" type="line"/>
      <point x="263" y="0" type="line"/>
      <point x="263" y="1249" type="line"/>
      <point x="-5" y="1249" type="line"/>
      <point x="-5" y="1400" type="line"/>
      <point x="690" y="1400" type="line"/>
      <point x="690" y="1249" type="line"/>
    </contour>
  </outline>
</glyph>
<glyph name="U" format="1">
  <advance width="1095"/>
  <unicode hex="0055"/>
  <outline>
    <contour>
      <point x="150" y="1400" type="line"/>
      <point x="310" y="1400" type="line"/>
      <point x="310" y="188" type="line"/>
      <point x="677" y="122" type="line"/>
      <point x="785" y="176" type="line"/>
      <point x="785" y="1400" type="line"/>
      <point x="945" y="1400" type="line"/>
      <point x="945" y="76" type="line"/>
      <point x="700" y="-45" type="line"/>
      <point x="150" y="54" type="line"/>
    </contour>
  </outline>
</glyph>
<glyph name="V" format="1">
  <advance width="896"/>
  <unicode hex="0056"/>
  <outline>
    <contour>
      <point x="871" y="1399" type="line"/>
      <point x="511" y="-12" type="line"/>
      <point x="355" y="-12" type="line"/>
      <point x="25" y="1395" type="line"/>
      <point x="181" y="1432" type="line"/>
      <point x="438" y="347" type="line"/>
      <point x="715" y="1439" type="line"/>
    </contour>
  </outline>
</glyph>
<glyph name="W" format="1">
  <advance width="1152"/>
  <unicode hex="0057"/>
  <outline>
    <contour>
      <point x="1127" y="1399" type="line"/>
      <point x="1010" y="48" type="line"/>
      <point x="861" y="0" type="line"/>
      <point x="578" y="625" type="line"/>
      <point x="290" y="0" type="line"/>
      <point x="142" y="48" type="line"/>
      <point x="25" y="1399" type="line"/>
      <point x="189" y="1399" type="line"/>
      <point x="280" y="375" type="line"/>
      <point x="579" y="1020" type="line"/>
      <point x="863" y="371" type="line"/>
      <point x="963" y="1399" type="line"/>
    </contour>
  </outline>
</glyph>
<glyph name="X" format="1">
  <advance width="906"/>
  <unicode hex="0058"/>
  <outline>
    <contour>
      <point x="533" y="680" type="line"/>
      <point x="868" y="53" type="line"/>
      <point x="727" y="-23" type="line"/>
      <point x="453" y="491" type="line"/>
      <point x="178" y="-23" type="line"/>
      <point x="38" y="53" type="line"/>
      <point x="372" y="680" type="line"/>
      <point x="29" y="1390" type="line"/>
      <point x="177" y="1462" type="line"/>
      <point x="453" y="890" type="line"/>
      <point x="728" y="1462" type="line"/>
      <point x="877" y="1390" type="line"/>
    </contour>
  </outline>
</glyph>
<glyph name="Y" format="1">
  <advance width="893"/>
  <unicode hex="0059"/>
  <outline>
    <contour>
      <point x="10" y="1386" type="line"/>
      <point x="152" y="1461" type="line"/>
      <point x="447" y="907" type="line"/>
      <point x="742" y="1461" type="line"/>
      <point x="883" y="1386" type="line"/>
      <point x="532" y="727" type="line"/>
      <point x="532" y="0" type="line"/>
      <point x="362" y="0" type="line"/>
      <point x="362" y="727" type="line"/>
    </contour>
  </outline>
</glyph>
<glyph name="Z" format="1">
  <advance width="976"/>
  <unicode hex="005A"/>
  <outline>
    <contour>
      <point x="856" y="47" type="line"/>
      <point x="658" y="-45" type="line"/>
      <point x="30" y="52" type="line"/>
      <point x="697" y="1204" type="line"/>
      <point x="347" y="1276" type="line"/>
      <point x="198" y="1190" type="line"/>
      <point x="118" y="1329" type="line"/>
      <point x="320" y="1445" type="line"/>
      <point x="946" y="1315" type="line"/>
      <point x="286" y="174" type="line"/>
      <point x="634" y="120" type="line"/>
      <point x="788" y="192" type="line"/>
    </contour>
  </outline>
</glyph>
<glyph name="bracketleft" format="1">
  <advance width="508"/>
  <unicode hex="005B"/>
  <outline>
    <contour>
      <point x="393" y="160" type="line"/>
      <point x="310" y="160" type="line"/>
      <point x="310" y="1321" type="line"/>
      <point x="393" y="1321" type="line"/>
      <point x="393" y="1482" type="line"/>
      <point x="150" y="1482" type="line"/>
      <point x="150" y="0" type="line"/>
      <point x="393" y="0" type="line"/>
    </contour>
  </outline>
</glyph>
<glyph name="asciicircum" format="1">
  <advance width="921"/>
  <unicode hex="005E"/>
  <outline>
    <contour>
      <point x="461" y="1262" type="line"/>
      <point x="752" y="977" type="line"/>
      <point x="866" y="1093" type="line"/>
      <point x="461" y="1488" type="line"/>
      <point x="55" y="1091" type="line"/>
      <point x="169" y="975" type="line"/>
    </contour>
  </outline>
</glyph>
<glyph name="underscore" format="1">
  <advance width="986"/>
  <unicode hex="005F"/>
  <outline>
    <contour>
      <point x="916" y="162" type="line"/>
      <point x="70" y="162" type="line"/>
      <point x="70" y="0" type="line"/>
      <point x="916" y="0" type="line"/>
    </contour>
  </outline>
</glyph>
<glyph name="grave" format="1">
  <advance width="446"/>
  <unicode hex="0060"/>
  <outline>
    <contour>
      <point x="238" y="1400" type="move" name="Center"/>
    </contour>
    <contour>
      <point x="36" y="1515" type="line"/>
      <point x="235" y="1515" type="line"/>
      <point x="337" y="1317" type="line"/>
      <point x="205" y="1260" type="line"/>
    </contour>
  </outline>
</glyph>
<glyph name="a" format="1">
  <advance width="1105"/>
  <unicode hex="0061"/>
  <outline>
    <contour>
      <point x="955" y="1324" type="line"/>
      <point x="955" y="0" type="line"/>
      <point x="795" y="0" type="line"/>
      <point x="795" y="544" type="line"/>
      <point x="711" y="505" type="line"/>
      <point x="311" y="569" type="line"/>
      <point x="311" y="0" type="line"/>
      <point x="150" y="0" type="line"/>
      <point x="150" y="1306" type="line"/>
      <point x="393" y="1445" type="line"/>
    </contour>
    <contour>
      <point x="311" y="1213" type="line"/>
      <point x="311" y="732" type="line"/>
      <point x="687" y="671" type="line"/>
      <point x="795" y="721" type="line"/>
      <point x="795" y="1195" type="line"/>
      <point x="419" y="1276" type="line"/>
    </contour>
  </outline>
</glyph>
<glyph name="b" format="1">
  <advance width="1132"/>
  <unicode hex="0062"/>
  <outline>
    <contour>
      <point x="1007" y="545" type="line"/>
      <point x="1007" y="0" type="line"/>
      <point x="150" y="0" type="line"/>
      <point x="150" y="1308" type="line"/>
      <point x="390" y="1445" type="line"/>
      <point x="951" y="1327" type="line"/>
      <point x="951" y="617" type="line"/>
      <point x="893" y="590" type="line"/>
    </contour>
    <contour>
      <point x="668" y="512" type="line"/>
      <point x="668" y="656" type="line"/>
      <point x="795" y="717" type="line"/>
      <point x="795" y="1198" type="line"/>
      <point x="418" y="1281" type="line"/>
      <point x="307" y="1217" type="line"/>
      <point x="307" y="156" type="line"/>
      <point x="851" y="156" type="line"/>
      <point x="851" y="439" type="line"/>
    </contour>
  </outline>
</glyph>
<glyph name="c" format="1">
  <advance width="905"/>
  <unicode hex="0063"/>
  <outline>
    <contour>
      <point x="477" y="0" type="move" name="BCenter"/>
    </contour>
    <component base="C"/>
  </outline>
</glyph>
<glyph name="d" format="1">
  <advance width="1128"/>
  <unicode hex="0064"/>
  <outline>
    <contour>
      <point x="728" y="1216" type="line"/>
      <point x="872" y="425" type="line"/>
      <point x="769" y="160" type="line"/>
      <point x="310" y="160" type="line"/>
      <point x="310" y="1215" type="line"/>
      <point x="421" y="1278" type="line"/>
    </contour>
    <contour>
      <point x="392" y="1446" type="line"/>
      <point x="150" y="1306" type="line"/>
      <point x="150" y="0" type="line"/>
      <point x="877" y="0" type="line"/>
      <point x="1038" y="411" type="line"/>
      <point x="866" y="1350" type="line"/>
    </contour>
  </outline>
</glyph>
<glyph name="f" format="1">
  <advance width="974"/>
  <unicode hex="0066"/>
  <outline>
    <contour>
      <point x="304" y="0" type="line"/>
      <point x="150" y="0" type="line"/>
      <point x="150" y="1310" type="line"/>
      <point x="386" y="1445" type="line"/>
      <point x="894" y="1341" type="line"/>
      <point x="865" y="1190" type="line"/>
      <point x="414" y="1284" type="line"/>
      <point x="304" y="1221" type="line"/>
      <point x="304" y="790" type="line"/>
      <point x="818" y="790" type="line"/>
      <point x="818" y="636" type="line"/>
      <point x="304" y="636" type="line"/>
    </contour>
  </outline>
</glyph>
<glyph name="g" format="1">
  <advance width="1048"/>
  <unicode hex="0067"/>
  <outline>
    <contour>
      <point x="923" y="64" type="line"/>
      <point x="923" y="703" type="line"/>
      <point x="504" y="703" type="line"/>
      <point x="504" y="543" type="line"/>
      <point x="763" y="543" type="line"/>
      <point x="763" y="168" type="line"/>
      <point x="660" y="121" type="line"/>
      <point x="310" y="183" type="line"/>
      <point x="310" y="1217" type="line"/>
      <point x="423" y="1277" type="line"/>
      <point x="878" y="1187" type="line"/>
      <point x="909" y="1344" type="line"/>
      <point x="399" y="1445" type="line"/>
      <point x="150" y="1314" type="line"/>
      <point x="150" y="49" type="line"/>
      <point x="680" y="-45" type="line"/>
    </contour>
  </outline>
</glyph>
<glyph name="h" format="1">
  <advance width="1127"/>
  <unicode hex="0068"/>
  <outline>
    <contour>
      <point x="977" y="0" type="line"/>
      <point x="817" y="0" type="line"/>
      <point x="817" y="544" type="line"/>
      <point x="733" y="505" type="line"/>
      <point x="316" y="569" type="line"/>
      <point x="316" y="0" type="line"/>
      <point x="150" y="0" type="line"/>
      <point x="150" y="1400" type="line"/>
      <point x="316" y="1400" type="line"/>
      <point x="316" y="731" type="line"/>
      <point x="709" y="671" type="line"/>
      <point x="817" y="721" type="line"/>
      <point x="817" y="1400" type="line"/>
      <point x="977" y="1400" type="line"/>
    </contour>
  </outline>
</glyph>
<glyph name="i" format="1">
  <advance width="460"/>
  <unicode hex="0069"/>
  <outline>
    <contour>
      <point x="310" y="1400" type="line"/>
      <point x="150" y="1400" type="line"/>
      <point x="150" y="0" type="line"/>
      <point x="310" y="0" type="line"/>
    </contour>
  </outline>
</glyph>
<glyph name="k" format="1">
  <advance width="1029"/>
  <unicode hex="006B"/>
  <outline>
    <contour>
      <point x="899" y="0" type="line"/>
      <point x="739" y="0" type="line"/>
      <point x="739" y="497" type="line"/>
      <point x="450" y="630" type="line"/>
      <point x="310" y="630" type="line"/>
      <point x="310" y="0" type="line"/>
      <point x="150" y="0" type="line"/>
      <point x="150" y="1400" type="line"/>
      <point x="310" y="1400" type="line"/>
      <point x="310" y="790" type="line"/>
      <point x="567" y="790" type="line"/>
      <point x="675" y="841" type="line"/>
      <point x="675" y="1400" type="line"/>
      <point x="840" y="1400" type="line"/>
      <point x="840" y="741" type="line"/>
      <point x="824" y="734" type="line"/>
      <point x="728" y="678" type="line"/>
      <point x="899" y="599" type="line"/>
    </contour>
  </outline>
</glyph>
<glyph name="l" format="1">
  <advance width="925"/>
  <unicode hex="006C"/>
  <outline>
    <contour>
      <point x="905" y="156" type="line"/>
      <point x="306" y="156" type="line"/>
      <point x="306" y="1400" type="line"/>
      <point x="150" y="1400" type="line"/>
      <point x="150" y="0" type="line"/>
      <point x="905" y="0" type="line"/>
    </contour>
  </outline>
</glyph>
<glyph name="n" format="1">
  <advance width="1147"/>
  <unicode hex="006E"/>
  <outline>
    <contour>
      <point x="997" y="0" type="line"/>
      <point x="997" y="1400" type="line"/>
      <point x="837" y="1400" type="line"/>
      <point x="837" y="344" type="line"/>
      <point x="302" y="1430" type="line"/>
      <point x="150" y="1395" type="line"/>
      <point x="150" y="0" type="line"/>
      <point x="310" y="0" type="line"/>
      <point x="310" y="1050" type="line"/>
      <point x="845" y="-36" type="line"/>
    </contour>
  </outline>
</glyph>
<glyph name="t" format="1">
  <advance width="895"/>
  <unicode hex="0074"/>
  <outline>
    <contour>
      <point x="527" y="1249" type="line"/>
      <point x="527" y="0" type="line"/>
      <point x="368" y="0" type="line"/>
      <point x="368" y="1249" type="line"/>
      <point x="100" y="1249" type="line"/>
      <point x="100" y="1400" type="line"/>
      <point x="795" y="1400" type="line"/>
      <point x="795" y="1249" type="line"/>
    </contour>
  </outline>
</glyph>
<glyph name="u" format="1">
  <advance width="1095"/>
  <unicode hex="0075"/>
  <outline>
    <contour>
      <point x="150" y="1400" type="line"/>
      <point x="310" y="1400" type="line"/>
      <point x="310" y="188" type="line"/>
      <point x="677" y="122" type="line"/>
      <point x="785" y="176" type="line"/>
      <point x="785" y="1400" type="line"/>
      <point x="945" y="1400" type="line"/>
      <point x="945" y="76" type="line"/>
      <point x="700" y="-45" type="line"/>
      <point x="150" y="54" type="line"/>
    </contour>
  </outline>
</glyph>
<glyph name="z" format="1">
  <advance width="1046"/>
  <unicode hex="007A"/>
  <outline>
    <contour>
      <point x="891" y="47" type="line"/>
      <point x="693" y="-45" type="line"/>
      <point x="65" y="52" type="line"/>
      <point x="732" y="1204" type="line"/>
      <point x="382" y="1276" type="line"/>
      <point x="233" y="1190" type="line"/>
      <point x="153" y="1329" type="line"/>
      <point x="355" y="1445" type="line"/>
      <point x="981" y="1315" type="line"/>
      <point x="321" y="174" type="line"/>
      <point x="669" y="120" type="line"/>
      <point x="823" y="192" type="line"/>
    </contour>
  </outline>
</glyph>
<glyph name="braceleft" format="1">
  <advance width="735"/>
  <unicode hex="007B"/>
  <outline>
    <contour>
      <point x="582" y="1445" type="line"/>
      <point x="270" y="1338" type="line"/>
      <point x="270" y="864" type="line"/>
      <point x="80" y="670" type="line"/>
      <point x="270" y="475" type="line"/>
      <point x="270" y="52" type="line"/>
      <point x="596" y="-45" type="line"/>
      <point x="640" y="109" type="line"/>
      <point x="430" y="172" type="line"/>
      <point x="430" y="1222" type="line"/>
      <point x="634" y="1293" type="line"/>
    </contour>
  </outline>
</glyph>
<glyph name="bar" format="1">
  <advance width="460"/>
  <unicode hex="007C"/>
  <outline>
    <contour>
      <point x="310" y="1445" type="line"/>
      <point x="150" y="1445" type="line"/>
      <point x="150" y="-45" type="line"/>
      <point x="310" y="-45" type="line"/>
    </contour>
  </outline>
</glyph>
<glyph name="braceright" format="1">
  <advance width="635"/>
  <unicode hex="007D"/>
  <outline>
    <contour>
      <point x="53" y="1445" type="line"/>
      <point x="365" y="1338" type="line"/>
      <point x="365" y="864" type="line"/>
      <point x="555" y="670" type="line"/>
      <point x="365" y="475" type="line"/>
      <point x="365" y="52" type="line"/>
      <point x="39" y="-45" type="line"/>
      <point x="-5" y="109" type="line"/>
      <point x="205" y="172" type="line"/>
      <point x="205" y="1222" type="line"/>
      <point x="1" y="1293" type="line"/>
    </contour>
  </outline>
</glyph>
<glyph name="asciitilde" format="1">
  <advance width="1061"/>
  <unicode hex="007E"/>
  <outline>
    <contour>
      <point x="941" y="746" type="line"/>
      <point x="823" y="854" type="line"/>
      <point x="709" y="729" type="line"/>
      <point x="324" y="826" type="line"/>
      <point x="120" y="709" type="line"/>
      <point x="200" y="570" type="line"/>
      <point x="347" y="655" type="line"/>
      <point x="763" y="550" type="line"/>
    </contour>
  </outline>
</glyph>
<glyph name="cent" format="1">
  <advance width="831"/>
  <unicode hex="00A2"/>
  <outline>
    <contour>
      <point x="514" y="397" type="line"/>
      <point x="756" y="397" type="line"/>
      <point x="756" y="237" type="line"/>
      <point x="514" y="237" type="line"/>
      <point x="514" y="0" type="line"/>
      <point x="354" y="0" type="line"/>
      <point x="354" y="237" type="line"/>
      <point x="100" y="237" type="line"/>
      <point x="100" y="1072" type="line"/>
      <point x="354" y="1219" type="line"/>
      <point x="354" y="1445" type="line"/>
      <point x="514" y="1445" type="line"/>
      <point x="514" y="1200" type="line"/>
      <point x="766" y="1135" type="line"/>
      <point x="726" y="980" type="line"/>
      <point x="514" y="1034" type="line"/>
    </contour>
    <contour>
      <point x="354" y="1034" type="line"/>
      <point x="260" y="980" type="line"/>
      <point x="260" y="397" type="line"/>
      <point x="354" y="397" type="line"/>
    </contour>
  </outline>
</glyph>
<glyph name="sterling" format="1">
  <advance width="1020"/>
  <unicode hex="00A3"/>
  <outline>
    <contour>
      <point x="397" y="57" type="line"/>
      <point x="252" y="-45" type="line"/>
      <point x="34" y="41" type="line"/>
      <point x="92" y="186" type="line"/>
      <point x="231" y="131" type="line"/>
      <point x="308" y="184" type="line"/>
      <point x="308" y="650" type="line"/>
      <point x="73" y="650" type="line"/>
      <point x="73" y="790" type="line"/>
      <point x="308" y="790" type="line"/>
      <point x="308" y="1302" type="line"/>
      <point x="552" y="1445" type="line"/>
      <point x="813" y="1388" type="line"/>
      <point x="780" y="1235" type="line"/>
      <point x="579" y="1279" type="line"/>
      <point x="468" y="1213" type="line"/>
      <point x="468" y="790" type="line"/>
      <point x="698" y="790" type="line"/>
      <point x="698" y="650" type="line"/>
      <point x="468" y="650" type="line"/>
      <point x="468" y="199" type="line"/>
      <point x="688" y="127" type="line"/>
      <point x="913" y="281" type="line"/>
      <point x="1002" y="152" type="line"/>
      <point x="714" y="-45" type="line"/>
    </contour>
  </outline>
</glyph>
<glyph name="currency" format="1">
  <advance width="905"/>
  <unicode hex="00A4"/>
  <outline>
    <contour>
      <point x="733" y="530" type="curve"/>
      <point x="825" y="437" type="line"/>
      <point x="715" y="327" type="line"/>
      <point x="622" y="419" type="line"/>
      <point x="573" y="389"/>
      <point x="515" y="371"/>
      <point x="453" y="371" type="curve" smooth="yes"/>
      <point x="391" y="371"/>
      <point x="333" y="389"/>
      <point x="283" y="419" type="curve"/>
      <point x="191" y="327" type="line"/>
      <point x="80" y="437" type="line"/>
      <point x="173" y="530" type="line"/>
      <point x="143" y="579"/>
      <point x="125" y="637"/>
      <point x="125" y="699" type="curve" smooth="yes"/>
      <point x="125" y="761"/>
      <point x="143" y="819"/>
      <point x="173" y="869" type="curve"/>
      <point x="80" y="960" type="line"/>
      <point x="191" y="1071" type="line"/>
      <point x="283" y="978" type="line"/>
      <point x="333" y="1008"/>
      <point x="391" y="1026"/>
      <point x="453" y="1026" type="curve" smooth="yes"/>
      <point x="515" y="1026"/>
      <point x="573" y="1008"/>
      <point x="622" y="978" type="curve"/>
      <point x="715" y="1071" type="line"/>
      <point x="825" y="960" type="line"/>
      <point x="733" y="869" type="line"/>
      <point x="763" y="819"/>
      <point x="781" y="761"/>
      <point x="781" y="699" type="curve" smooth="yes"/>
      <point x="781" y="637"/>
      <point x="763" y="579"/>
    </contour>
    <contour>
      <point x="616" y="646" type="curve" smooth="yes"/>
      <point x="621" y="663"/>
      <point x="624" y="681"/>
      <point x="624" y="699" type="curve" smooth="yes"/>
      <point x="624" y="718"/>
      <point x="621" y="735"/>
      <point x="616" y="752" type="curve" smooth="yes"/>
      <point x="599" y="804"/>
      <point x="558" y="845"/>
      <point x="506" y="862" type="curve" smooth="yes"/>
      <point x="489" y="868"/>
      <point x="471" y="871"/>
      <point x="453" y="871" type="curve" smooth="yes"/>
      <point x="434" y="871"/>
      <point x="417" y="868"/>
      <point x="400" y="862" type="curve" smooth="yes"/>
      <point x="348" y="845"/>
      <point x="307" y="804"/>
      <point x="290" y="752" type="curve" smooth="yes"/>
      <point x="284" y="735"/>
      <point x="281" y="718"/>
      <point x="281" y="699" type="curve" smooth="yes"/>
      <point x="281" y="681"/>
      <point x="284" y="663"/>
      <point x="290" y="646" type="curve" smooth="yes"/>
      <point x="307" y="594"/>
      <point x="348" y="553"/>
      <point x="400" y="536" type="curve" smooth="yes"/>
      <point x="417" y="531"/>
      <point x="434" y="528"/>
      <point x="453" y="528" type="curve" smooth="yes"/>
      <point x="471" y="528"/>
      <point x="489" y="531"/>
      <point x="506" y="536" type="curve" smooth="yes"/>
      <point x="558" y="553"/>
      <point x="599" y="594"/>
    </contour>
  </outline>
</glyph>
<glyph name="yen" format="1">
  <advance width="1020"/>
  <unicode hex="00A5"/>
  <outline>
    <contour>
      <point x="73" y="1386" type="line"/>
      <point x="215" y="1461" type="line"/>
      <point x="510" y="907" type="line"/>
      <point x="805" y="1461" type="line"/>
      <point x="946" y="1386" type="line"/>
      <point x="628" y="790" type="line"/>
      <point x="749" y="790" type="line"/>
      <point x="749" y="636" type="line"/>
      <point x="595" y="636" type="line"/>
      <point x="595" y="518" type="line"/>
      <point x="749" y="518" type="line"/>
      <point x="749" y="364" type="line"/>
      <point x="595" y="364" type="line"/>
      <point x="595" y="0" type="line"/>
      <point x="425" y="0" type="line"/>
      <point x="425" y="364" type="line"/>
      <point x="235" y="364" type="line"/>
      <point x="235" y="518" type="line"/>
      <point x="425" y="518" type="line"/>
      <point x="425" y="636" type="line"/>
      <point x="235" y="636" type="line"/>
      <point x="235" y="790" type="line"/>
      <point x="391" y="790" type="line"/>
    </contour>
  </outline>
</glyph>
<glyph name="brokenbar" format="1">
  <advance width="460"/>
  <unicode hex="00A6"/>
  <outline>
    <contour>
      <point x="310" y="505" type="line"/>
      <point x="150" y="505" type="line"/>
      <point x="150" y="-45" type="line"/>
      <point x="310" y="-45" type="line"/>
    </contour>
    <contour>
      <point x="310" y="1445" type="line"/>
      <point x="150" y="1445" type="line"/>
      <point x="150" y="790" type="line"/>
      <point x="310" y="790" type="line"/>
    </contour>
  </outline>
</glyph>
<glyph name="section" format="1">
  <advance width="951"/>
  <unicode hex="00A7"/>
  <outline>
    <contour>
      <point x="832" y="92" type="line"/>
      <point x="443" y="-45" type="line"/>
      <point x="109" y="116" type="line"/>
      <point x="177" y="257" type="line"/>
      <point x="453" y="124" type="line"/>
      <point x="585" y="170" type="line"/>
      <point x="30" y="956" type="line"/>
      <point x="247" y="1079" type="line"/>
      <point x="110" y="1283" type="line"/>
      <point x="384" y="1445" type="line"/>
      <point x="856" y="1342" type="line"/>
      <point x="823" y="1190" type="line"/>
      <point x="411" y="1279" type="line"/>
      <point x="332" y="1233" type="line"/>
      <point x="921" y="359" type="line"/>
      <point x="703" y="274" type="line"/>
    </contour>
    <contour>
      <point x="610" y="406" type="line"/>
      <point x="683" y="434" type="line"/>
      <point x="335" y="950" type="line"/>
      <point x="257" y="905" type="line"/>
    </contour>
  </outline>
</glyph>
<glyph name="dieresis" format="1">
  <advance width="577"/>
  <unicode hex="00A8"/>
  <outline>
    <contour>
      <point x="209" y="1496" type="line"/>
      <point x="64" y="1496" type="line"/>
      <point x="64" y="1342" type="line"/>
      <point x="209" y="1342" type="line"/>
    </contour>
    <contour>
      <point x="491" y="1496" type="line"/>
      <point x="346" y="1496" type="line"/>
      <point x="346" y="1342" type="line"/>
      <point x="491" y="1342" type="line"/>
    </contour>
  </outline>
</glyph>
<glyph name="copyright" format="1">
  <advance width="1252"/>
  <unicode hex="00A9"/>
  <outline>
    <contour>
      <point x="1122" y="948" type="curve"/>
      <point x="1122" y="1222"/>
      <point x="900" y="1445"/>
      <point x="626" y="1445" type="curve" smooth="yes"/>
      <point x="352" y="1445"/>
      <point x="130" y="1222"/>
      <point x="130" y="948" type="curve" smooth="yes"/>
      <point x="130" y="676"/>
      <point x="352" y="453"/>
      <point x="626" y="453" type="curve"/>
      <point x="900" y="453"/>
      <point x="1122" y="676"/>
    </contour>
    <contour>
      <point x="966" y="948" type="curve"/>
      <point x="966" y="762"/>
      <point x="814" y="609"/>
      <point x="626" y="609" type="curve" smooth="yes"/>
      <point x="439" y="609"/>
      <point x="286" y="762"/>
      <point x="286" y="948" type="curve" smooth="yes"/>
      <point x="286" y="1136"/>
      <point x="439" y="1289"/>
      <point x="626" y="1289" type="curve"/>
      <point x="814" y="1289"/>
      <point x="966" y="1136"/>
    </contour>
    <contour>
      <point x="473" y="901" type="line"/>
      <point x="473" y="1028" type="line"/>
      <point x="493" y="1035" type="line"/>
      <point x="573" y="1009" type="line"/>
      <point x="604" y="1097" type="line"/>
      <point x="478" y="1147" type="line"/>
      <point x="383" y="1076" type="line"/>
      <point x="383" y="823" type="line"/>
      <point x="589" y="823" type="line"/>
      <point x="589" y="901" type="line"/>
    </contour>
    <contour>
      <point x="747" y="901" type="line"/>
      <point x="747" y="1028" type="line"/>
      <point x="768" y="1035" type="line"/>
      <point x="849" y="1009" type="line"/>
      <point x="879" y="1097" type="line"/>
      <point x="753" y="1147" type="line"/>
      <point x="656" y="1076" type="line"/>
      <point x="656" y="823" type="line"/>
      <point x="864" y="823" type="line"/>
      <point x="864" y="901" type="line"/>
    </contour>
  </outline>
</glyph>
<glyph name="ordfeminine" format="1">
  <advance width="711"/>
  <unicode hex="00AA"/>
  <outline>
    <contour>
      <point x="290" y="933" type="line"/>
      <point x="421" y="912" type="line"/>
      <point x="421" y="728" type="line"/>
      <point x="581" y="728" type="line"/>
      <point x="581" y="1380" type="line"/>
      <point x="276" y="1445" type="line"/>
      <point x="130" y="1361" type="line"/>
      <point x="130" y="728" type="line"/>
      <point x="290" y="728" type="line"/>
    </contour>
    <contour>
      <point x="290" y="1269" type="line"/>
      <point x="303" y="1276" type="line"/>
      <point x="421" y="1250" type="line"/>
      <point x="421" y="1081" type="line"/>
      <point x="410" y="1076" type="line"/>
      <point x="290" y="1096" type="line"/>
    </contour>
  </outline>
</glyph>
<glyph name="guillemotleft" format="1">
  <advance width="926"/>
  <unicode hex="00AB"/>
  <outline>
    <contour>
      <point x="471" y="381" type="line"/>
      <point x="305" y="628" type="line"/>
      <point x="466" y="867" type="line"/>
      <point x="331" y="956" type="line"/>
      <point x="110" y="628" type="line"/>
      <point x="337" y="290" type="line"/>
    </contour>
    <contour>
      <point x="806" y="381" type="line"/>
      <point x="640" y="628" type="line"/>
      <point x="801" y="867" type="line"/>
      <point x="666" y="956" type="line"/>
      <point x="445" y="628" type="line"/>
      <point x="672" y="290" type="line"/>
    </contour>
  </outline>
</glyph>
<glyph name="logicalnot" format="1">
  <advance width="1067"/>
  <unicode hex="00AC"/>
  <outline>
    <contour>
      <point x="997" y="790" type="line"/>
      <point x="70" y="790" type="line"/>
      <point x="70" y="628" type="line"/>
      <point x="835" y="628" type="line"/>
      <point x="835" y="510" type="line"/>
      <point x="997" y="510" type="line"/>
    </contour>
  </outline>
</glyph>
<glyph name="registered" format="1">
  <advance width="1153"/>
  <unicode hex="00AE"/>
  <outline>
    <contour>
      <point x="667" y="724" type="line"/>
      <point x="573" y="843" type="line"/>
      <point x="514" y="839" type="line"/>
      <point x="514" y="732" type="line"/>
      <point x="416" y="732" type="line"/>
      <point x="416" y="1162" type="line"/>
      <point x="514" y="1210" type="line"/>
      <point x="743" y="1161" type="line"/>
      <point x="743" y="905" type="line"/>
      <point x="670" y="875" type="line"/>
      <point x="763" y="772" type="line"/>
    </contour>
    <contour>
      <point x="614" y="954" type="line"/>
      <point x="624" y="958" type="line"/>
      <point x="624" y="1098" type="line"/>
      <point x="546" y="1117" type="line"/>
      <point x="534" y="1110" type="line"/>
      <point x="534" y="970" type="line"/>
    </contour>
    <contour>
      <point x="1073" y="948" type="curve" smooth="yes"/>
      <point x="1073" y="1222"/>
      <point x="850" y="1445"/>
      <point x="576" y="1445" type="curve" smooth="yes"/>
      <point x="303" y="1445"/>
      <point x="80" y="1222"/>
      <point x="80" y="948" type="curve" smooth="yes"/>
      <point x="80" y="676"/>
      <point x="303" y="453"/>
      <point x="576" y="453" type="curve"/>
      <point x="850" y="453"/>
      <point x="1073" y="676"/>
    </contour>
    <contour>
      <point x="917" y="948" type="curve" smooth="yes"/>
      <point x="917" y="762"/>
      <point x="764" y="609"/>
      <point x="576" y="609" type="curve" smooth="yes"/>
      <point x="389" y="609"/>
      <point x="236" y="762"/>
      <point x="236" y="948" type="curve" smooth="yes"/>
      <point x="236" y="1136"/>
      <point x="389" y="1289"/>
      <point x="576" y="1289" type="curve"/>
      <point x="764" y="1289"/>
      <point x="917" y="1136"/>
    </contour>
  </outline>
</glyph>
<glyph name="degree" format="1">
  <advance width="572"/>
  <unicode hex="00B0"/>
  <outline>
    <contour>
      <point x="517" y="1214" type="curve" smooth="yes"/>
      <point x="517" y="1087"/>
      <point x="414" y="983"/>
      <point x="286" y="983" type="curve"/>
      <point x="159" y="983"/>
      <point x="55" y="1087"/>
      <point x="55" y="1214" type="curve" smooth="yes"/>
      <point x="55" y="1341"/>
      <point x="159" y="1445"/>
      <point x="286" y="1445" type="curve" smooth="yes"/>
      <point x="414" y="1445"/>
      <point x="517" y="1341"/>
    </contour>
    <contour>
      <point x="378" y="1214" type="curve" smooth="yes"/>
      <point x="378" y="1265"/>
      <point x="337" y="1306"/>
      <point x="286" y="1306" type="curve"/>
      <point x="236" y="1306"/>
      <point x="194" y="1265"/>
      <point x="194" y="1214" type="curve" smooth="yes"/>
      <point x="194" y="1163"/>
      <point x="236" y="1122"/>
      <point x="286" y="1122" type="curve" smooth="yes"/>
      <point x="337" y="1122"/>
      <point x="378" y="1163"/>
    </contour>
  </outline>
</glyph>
<glyph name="acute" format="1">
  <advance width="351"/>
  <unicode hex="00B4"/>
  <outline>
    <contour>
      <point x="124" y="1400" type="move" name="Center"/>
    </contour>
    <contour>
      <point x="157" y="1260" type="line"/>
      <point x="25" y="1317" type="line"/>
      <point x="127" y="1515" type="line"/>
      <point x="326" y="1515" type="line"/>
    </contour>
  </outline>
</glyph>
<glyph name="paragraph" format="1">
  <advance width="1194"/>
  <unicode hex="00B6"/>
  <outline>
    <contour>
      <point x="886" y="1238" type="line"/>
      <point x="886" y="0" type="line"/>
      <point x="726" y="0" type="line"/>
      <point x="726" y="1238" type="line"/>
      <point x="613" y="1238" type="line"/>
      <point x="613" y="0" type="line"/>
      <point x="452" y="0" type="line"/>
      <point x="452" y="746" type="line"/>
      <point x="274" y="749"/>
      <point x="130" y="894"/>
      <point x="130" y="1073" type="curve" smooth="yes"/>
      <point x="130" y="1251"/>
      <point x="274" y="1400"/>
      <point x="452" y="1400" type="curve"/>
      <point x="1084" y="1400" type="line"/>
      <point x="1084" y="1238" type="line"/>
    </contour>
    <contour>
      <point x="452" y="901" type="curve"/>
      <point x="452" y="1244" type="line"/>
      <point x="360" y="1241"/>
      <point x="286" y="1165"/>
      <point x="286" y="1073" type="curve" smooth="yes"/>
      <point x="286" y="980"/>
      <point x="360" y="904"/>
    </contour>
  </outline>
</glyph>
<glyph name="periodcentered" format="1">
  <advance width="281"/>
  <unicode hex="00B7"/>
  <outline>
    <contour>
      <point x="221" y="797" type="line"/>
      <point x="60" y="797" type="line"/>
      <point x="60" y="643" type="line"/>
      <point x="221" y="643" type="line"/>
    </contour>
  </outline>
</glyph>
<glyph name="cedilla" format="1">
  <advance width="591"/>
  <unicode hex="00B8"/>
  <outline>
    <contour>
      <point x="318" y="0" type="move" name="Center"/>
    </contour>
    <contour>
      <point x="83" y="-211" type="line"/>
      <point x="126" y="-61" type="line"/>
      <point x="255" y="-98" type="line"/>
      <point x="291" y="-75" type="line"/>
      <point x="161" y="129" type="line"/>
      <point x="355" y="129" type="line"/>
      <point x="502" y="-126" type="line"/>
      <point x="280" y="-268" type="line"/>
    </contour>
  </outline>
</glyph>
<glyph name="guillemotright" format="1">
  <advance width="826"/>
  <unicode hex="00BB"/>
  <outline>
    <contour>
      <point x="20" y="381" type="line"/>
      <point x="186" y="628" type="line"/>
      <point x="25" y="867" type="line"/>
      <point x="160" y="956" type="line"/>
      <point x="381" y="628" type="line"/>
      <point x="154" y="290" type="line"/>
    </contour>
    <contour>
      <point x="355" y="381" type="line"/>
      <point x="521" y="628" type="line"/>
      <point x="360" y="867" type="line"/>
      <point x="495" y="956" type="line"/>
      <point x="716" y="628" type="line"/>
      <point x="489" y="290" type="line"/>
    </contour>
  </outline>
</glyph>
<glyph name="Acircumflex" format="1">
  <advance width="1104"/>
  <unicode hex="00C2"/>
  <outline>
    <contour>
      <point x="954" y="0" type="line"/>
      <point x="794" y="0" type="line"/>
      <point x="794" y="368" type="line"/>
      <point x="710" y="329" type="line"/>
      <point x="310" y="393" type="line"/>
      <point x="310" y="0" type="line"/>
      <point x="150" y="0" type="line"/>
      <point x="150" y="1051" type="line"/>
      <point x="392" y="1190" type="line"/>
      <point x="954" y="1069" type="line"/>
    </contour>
    <contour>
      <point x="794" y="940" type="line"/>
      <point x="419" y="1021" type="line"/>
      <point x="310" y="958" type="line"/>
      <point x="310" y="556" type="line"/>
      <point x="687" y="495" type="line"/>
      <point x="794" y="545" type="line"/>
    </contour>
    <component base="circumflex" xOffset="221"/>
  </outline>
</glyph>
<glyph name="Aring" format="1">
  <advance width="1004"/>
  <unicode hex="00C5"/>
  <outline>
    <contour>
      <point x="751" y="1278" type="curve" smooth="yes"/>
      <point x="751" y="1215"/>
      <point x="725" y="1158"/>
      <point x="684" y="1116" type="curve"/>
      <point x="904" y="1069" type="line"/>
      <point x="904" y="0" type="line"/>
      <point x="744" y="0" type="line"/>
      <point x="744" y="368" type="line"/>
      <point x="660" y="329" type="line"/>
      <point x="260" y="393" type="line"/>
      <point x="260" y="0" type="line"/>
      <point x="100" y="0" type="line"/>
      <point x="100" y="1051" type="line"/>
      <point x="315" y="1174" type="line"/>
      <point x="299" y="1205"/>
      <point x="291" y="1240"/>
      <point x="291" y="1278" type="curve" smooth="yes"/>
      <point x="291" y="1405"/>
      <point x="394" y="1508"/>
      <point x="521" y="1508" type="curve" smooth="yes"/>
      <point x="648" y="1508"/>
      <point x="751" y="1405"/>
    </contour>
    <contour>
      <point x="744" y="940" type="line"/>
      <point x="369" y="1021" type="line"/>
      <point x="260" y="958" type="line"/>
      <point x="260" y="556" type="line"/>
      <point x="637" y="495" type="line"/>
      <point x="744" y="545" type="line"/>
    </contour>
    <contour>
      <point x="612" y="1278" type="curve" smooth="yes"/>
      <point x="612" y="1329"/>
      <point x="571" y="1369"/>
      <point x="521" y="1369" type="curve" smooth="yes"/>
      <point x="471" y="1369"/>
      <point x="430" y="1329"/>
      <point x="430" y="1278" type="curve" smooth="yes"/>
      <point x="430" y="1228"/>
      <point x="471" y="1187"/>
      <point x="521" y="1187" type="curve" smooth="yes"/>
      <point x="571" y="1187"/>
      <point x="612" y="1228"/>
    </contour>
  </outline>
</glyph>
<glyph name="AE" format="1">
  <advance width="1366"/>
  <unicode hex="00C6"/>
  <outline>
    <contour>
      <point x="1308" y="154" type="line"/>
      <point x="1308" y="0" type="line"/>
      <point x="646" y="0" type="line"/>
      <point x="646" y="507" type="line"/>
      <point x="260" y="569" type="line"/>
      <point x="260" y="0" type="line"/>
      <point x="100" y="0" type="line"/>
      <point x="100" y="1311" type="line"/>
      <point x="342" y="1450" type="line"/>
      <point x="713" y="1345" type="line"/>
      <point x="886" y="1445" type="line"/>
      <point x="1316" y="1340" type="line"/>
      <point x="1287" y="1189" type="line"/>
      <point x="914" y="1283" type="line"/>
      <point x="804" y="1220" type="line"/>
      <point x="804" y="790" type="line"/>
      <point x="1240" y="790" type="line"/>
      <point x="1240" y="637" type="line"/>
      <point x="804" y="637" type="line"/>
      <point x="804" y="154" type="line"/>
    </contour>
    <contour>
      <point x="646" y="721" type="line"/>
      <point x="646" y="1200" type="line"/>
      <point x="369" y="1281" type="line"/>
      <point x="260" y="1218" type="line"/>
      <point x="260" y="732" type="line"/>
      <point x="601" y="677" type="line"/>
    </contour>
  </outline>
</glyph>
<glyph name="Ccedilla" format="1">
  <advance width="905"/>
  <unicode hex="00C7"/>
  <outline>
    <contour>
      <point x="242" y="-211" type="line"/>
      <point x="285" y="-61" type="line"/>
      <point x="414" y="-98" type="line"/>
      <point x="450" y="-75" type="line"/>
      <point x="402" y="0" type="line"/>
      <point x="100" y="0" type="line"/>
      <point x="100" y="1306" type="line"/>
      <point x="342" y="1445" type="line"/>
      <point x="860" y="1338" type="line"/>
      <point x="827" y="1181" type="line"/>
      <point x="369" y="1276" type="line"/>
      <point x="260" y="1213" type="line"/>
      <point x="260" y="160" type="line"/>
      <point x="854" y="160" type="line"/>
      <point x="854" y="0" type="line"/>
      <point x="588" y="0" type="line"/>
      <point x="661" y="-126" type="line"/>
      <point x="439" y="-268" type="line"/>
    </contour>
  </outline>
</glyph>
<glyph name="Egrave" format="1">
  <advance width="904"/>
  <unicode hex="00C8"/>
  <outline>
    <contour>
      <point x="836" y="154" type="line"/>
      <point x="836" y="0" type="line"/>
      <point x="100" y="0" type="line"/>
      <point x="100" y="1054" type="line"/>
      <point x="336" y="1190" type="line"/>
      <point x="844" y="1085" type="line"/>
      <point x="815" y="934" type="line"/>
      <point x="363" y="1028" type="line"/>
      <point x="254" y="965" type="line"/>
      <point x="254" y="613" type="line"/>
      <point x="768" y="613" type="line"/>
      <point x="768" y="459" type="line"/>
      <point x="254" y="459" type="line"/>
      <point x="254" y="154" type="line"/>
    </contour>
    <component base="grave" xOffset="309"/>
  </outline>
</glyph>
<glyph name="Edieresis" format="1">
  <advance width="904"/>
  <unicode hex="00CB"/>
  <outline>
    <contour>
      <point x="836" y="154" type="line"/>
      <point x="836" y="0" type="line"/>
      <point x="100" y="0" type="line"/>
      <point x="100" y="1054" type="line"/>
      <point x="336" y="1190" type="line"/>
      <point x="844" y="1085" type="line"/>
      <point x="815" y="934" type="line"/>
      <point x="363" y="1028" type="line"/>
      <point x="254" y="965" type="line"/>
      <point x="254" y="613" type="line"/>
      <point x="768" y="613" type="line"/>
      <point x="768" y="459" type="line"/>
      <point x="254" y="459" type="line"/>
      <point x="254" y="154" type="line"/>
    </contour>
    <contour>
      <point x="429" y="1489" type="line"/>
      <point x="284" y="1489" type="line"/>
      <point x="284" y="1335" type="line"/>
      <point x="429" y="1335" type="line"/>
    </contour>
    <contour>
      <point x="711" y="1489" type="line"/>
      <point x="566" y="1489" type="line"/>
      <point x="566" y="1335" type="line"/>
      <point x="711" y="1335" type="line"/>
    </contour>
  </outline>
</glyph>
<glyph name="Igrave" format="1">
  <advance width="360"/>
  <unicode hex="00CC"/>
  <outline>
    <contour>
      <point x="260" y="1180" type="line"/>
      <point x="100" y="1180" type="line"/>
      <point x="100" y="0" type="line"/>
      <point x="260" y="0" type="line"/>
    </contour>
    <component base="grave" xOffset="-8"/>
  </outline>
</glyph>
<glyph name="Eth" format="1">
  <advance width="1119"/>
  <unicode hex="00D0"/>
  <outline>
    <contour>
      <point x="433" y="1446" type="line"/>
      <point x="191" y="1306" type="line"/>
      <point x="191" y="790" type="line"/>
      <point x="37" y="790" type="line"/>
      <point x="37" y="628" type="line"/>
      <point x="191" y="628" type="line"/>
      <point x="191" y="0" type="line"/>
      <point x="918" y="0" type="line"/>
      <point x="1079" y="411" type="line"/>
      <point x="907" y="1350" type="line"/>
    </contour>
    <contour>
      <point x="612" y="790" type="line"/>
      <point x="351" y="790" type="line"/>
      <point x="351" y="1215" type="line"/>
      <point x="462" y="1278" type="line"/>
      <point x="769" y="1216" type="line"/>
      <point x="913" y="425" type="line"/>
      <point x="810" y="160" type="line"/>
      <point x="351" y="160" type="line"/>
      <point x="351" y="628" type="line"/>
      <point x="612" y="628" type="line"/>
    </contour>
  </outline>
</glyph>
<glyph name="Ntilde" format="1">
  <advance width="1047"/>
  <unicode hex="00D1"/>
  <outline>
    <contour>
      <point x="947" y="0" type="line"/>
      <point x="947" y="1185" type="line"/>
      <point x="787" y="1185" type="line"/>
      <point x="787" y="297" type="line"/>
      <point x="250" y="1220" type="line"/>
      <point x="100" y="1180" type="line"/>
      <point x="100" y="0" type="line"/>
      <point x="260" y="0" type="line"/>
      <point x="260" y="884" type="line"/>
      <point x="798" y="-40" type="line"/>
    </contour>
    <component base="tilde" xOffset="235"/>
  </outline>
</glyph>
<glyph name="Ograve" format="1">
  <advance width="1163"/>
  <unicode hex="00D2"/>
  <outline>
    <contour>
      <point x="1013" y="69" type="line"/>
      <point x="1013" y="1071" type="line"/>
      <point x="392" y="1190" type="line"/>
      <point x="150" y="1051" type="line"/>
      <point x="150" y="43" type="line"/>
      <point x="770" y="-45" type="line"/>
    </contour>
    <contour>
      <point x="311" y="958" type="line"/>
      <point x="420" y="1021" type="line"/>
      <point x="853" y="938" type="line"/>
      <point x="853" y="171" type="line"/>
      <point x="745" y="120" type="line"/>
      <point x="311" y="182" type="line"/>
    </contour>
    <component base="grave" xOffset="340"/>
  </outline>
</glyph>
<glyph name="multiply" format="1">
  <advance width="720"/>
  <unicode hex="00D7"/>
  <outline>
    <contour>
      <point x="621" y="554" type="line"/>
      <point x="507" y="439" type="line"/>
      <point x="361" y="585" type="line"/>
      <point x="214" y="437" type="line"/>
      <point x="99" y="552" type="line"/>
      <point x="246" y="699" type="line"/>
      <point x="97" y="848" type="line"/>
      <point x="212" y="962" type="line"/>
      <point x="361" y="814" type="line"/>
      <point x="508" y="960" type="line"/>
      <point x="623" y="847" type="line"/>
      <point x="476" y="699" type="line"/>
    </contour>
  </outline>
</glyph>
<glyph name="Oslash" format="1">
  <advance width="1063"/>
  <unicode hex="00D8"/>
  <outline>
    <contour>
      <point x="963" y="186" type="line"/>
      <point x="718" y="72" type="line"/>
      <point x="484" y="114" type="line"/>
      <point x="446" y="-32" type="line"/>
      <point x="294" y="8" type="line"/>
      <point x="329" y="142" type="line"/>
      <point x="100" y="183" type="line"/>
      <point x="100" y="1034" type="line"/>
      <point x="341" y="1173" type="line"/>
      <point x="586" y="1126" type="line"/>
      <point x="665" y="1432" type="line"/>
      <point x="818" y="1392" type="line"/>
      <point x="741" y="1096" type="line"/>
      <point x="963" y="1054" type="line"/>
    </contour>
    <contour>
      <point x="546" y="970" type="line"/>
      <point x="370" y="1004" type="line"/>
      <point x="260" y="941" type="line"/>
      <point x="260" y="317" type="line"/>
      <point x="370" y="297" type="line"/>
    </contour>
    <contour>
      <point x="700" y="941" type="line"/>
      <point x="525" y="269" type="line"/>
      <point x="696" y="239" type="line"/>
      <point x="802" y="288" type="line"/>
      <point x="802" y="921" type="line"/>
    </contour>
  </outline>
</glyph>
<glyph name="Ucircumflex" format="1">
  <advance width="1026"/>
  <unicode hex="00DB"/>
  <outline>
    <contour>
      <point x="876" y="70" type="line"/>
      <point x="876" y="1180" type="line"/>
      <point x="715" y="1180" type="line"/>
      <point x="715" y="172" type="line"/>
      <point x="610" y="122" type="line"/>
      <point x="310" y="180" type="line"/>
      <point x="310" y="1180" type="line"/>
      <point x="150" y="1180" type="line"/>
      <point x="150" y="48" type="line"/>
      <point x="630" y="-45" type="line"/>
    </contour>
    <component base="circumflex" xOffset="163"/>
  </outline>
</glyph>
<glyph name="Yacute" format="1">
  <advance width="994"/>
  <unicode hex="00DD"/>
  <outline>
    <contour>
      <point x="567" y="459" type="line"/>
      <point x="567" y="0" type="line"/>
      <point x="397" y="0" type="line"/>
      <point x="397" y="459" type="line"/>
      <point x="401" y="459" type="line"/>
      <point x="60" y="1126" type="line"/>
      <point x="203" y="1198" type="line"/>
      <point x="485" y="646" type="line"/>
      <point x="794" y="1201" type="line"/>
      <point x="934" y="1123" type="line"/>
    </contour>
    <component base="acute" xOffset="311"/>
  </outline>
</glyph>
<glyph name="Thorn" format="1">
  <advance width="712"/>
  <unicode hex="00DE"/>
  <outline>
    <contour>
      <point x="627" y="458" type="line"/>
      <point x="382" y="344" type="line"/>
      <point x="260" y="366" type="line"/>
      <point x="260" y="0" type="line"/>
      <point x="100" y="0" type="line"/>
      <point x="100" y="1399" type="line"/>
      <point x="260" y="1399" type="line"/>
      <point x="260" y="1142" type="line"/>
      <point x="627" y="1072" type="line"/>
    </contour>
    <contour>
      <point x="260" y="979" type="line"/>
      <point x="260" y="529" type="line"/>
      <point x="360" y="511" type="line"/>
      <point x="467" y="560" type="line"/>
      <point x="467" y="939" type="line"/>
    </contour>
  </outline>
</glyph>
<glyph name="germandbls" format="1">
  <advance width="1043"/>
  <unicode hex="00DF"/>
  <outline>
    <contour>
      <point x="149" y="1268" type="line"/>
      <point x="149" y="0" type="line"/>
      <point x="307" y="0" type="line"/>
      <point x="307" y="1188" type="line"/>
      <point x="422" y="1271" type="line"/>
      <point x="618" y="1210" type="line"/>
      <point x="618" y="724" type="line"/>
      <point x="452" y="653" type="line"/>
      <point x="452" y="509" type="line"/>
      <point x="755" y="305" type="line"/>
      <point x="755" y="159" type="line"/>
      <point x="445" y="159" type="line"/>
      <point x="445" y="0" type="line"/>
      <point x="915" y="0" type="line"/>
      <point x="915" y="390" type="line"/>
      <point x="656" y="567" type="line"/>
      <point x="778" y="618" type="line"/>
      <point x="778" y="1326" type="line"/>
      <point x="390" y="1445" type="line"/>
    </contour>
  </outline>
</glyph>
<glyph name="atilde" format="1">
  <advance width="1004"/>
  <unicode hex="00E3"/>
  <outline>
    <contour>
      <point x="904" y="0" type="line"/>
      <point x="744" y="0" type="line"/>
      <point x="744" y="368" type="line"/>
      <point x="660" y="329" type="line"/>
      <point x="260" y="393" type="line"/>
      <point x="260" y="0" type="line"/>
      <point x="100" y="0" type="line"/>
      <point x="100" y="1051" type="line"/>
      <point x="342" y="1190" type="line"/>
      <point x="904" y="1069" type="line"/>
    </contour>
    <contour>
      <point x="744" y="940" type="line"/>
      <point x="369" y="1021" type="line"/>
      <point x="260" y="958" type="line"/>
      <point x="260" y="556" type="line"/>
      <point x="637" y="495" type="line"/>
      <point x="744" y="545" type="line"/>
    </contour>
    <component base="tilde" xOffset="233"/>
  </outline>
</glyph>
<glyph name="aring" format="1">
  <advance width="1104"/>
  <unicode hex="00E5"/>
  <outline>
    <contour>
      <point x="801" y="1278" type="curve" smooth="yes"/>
      <point x="801" y="1215"/>
      <point x="775" y="1158"/>
      <point x="734" y="1116" type="curve"/>
      <point x="954" y="1069" type="line"/>
      <point x="954" y="0" type="line"/>
      <point x="794" y="0" type="line"/>
      <point x="794" y="368" type="line"/>
      <point x="710" y="329" type="line"/>
      <point x="310" y="393" type="line"/>
      <point x="310" y="0" type="line"/>
      <point x="150" y="0" type="line"/>
      <point x="150" y="1051" type="line"/>
      <point x="365" y="1174" type="line"/>
      <point x="349" y="1205"/>
      <point x="341" y="1240"/>
      <point x="341" y="1278" type="curve" smooth="yes"/>
      <point x="341" y="1405"/>
      <point x="444" y="1508"/>
      <point x="571" y="1508" type="curve" smooth="yes"/>
      <point x="698" y="1508"/>
      <point x="801" y="1405"/>
    </contour>
    <contour>
      <point x="794" y="940" type="line"/>
      <point x="419" y="1021" type="line"/>
      <point x="310" y="958" type="line"/>
      <point x="310" y="556" type="line"/>
      <point x="687" y="495" type="line"/>
      <point x="794" y="545" type="line"/>
    </contour>
    <contour>
      <point x="662" y="1278" type="curve" smooth="yes"/>
      <point x="662" y="1329"/>
      <point x="621" y="1369"/>
      <point x="571" y="1369" type="curve" smooth="yes"/>
      <point x="521" y="1369"/>
      <point x="480" y="1329"/>
      <point x="480" y="1278" type="curve" smooth="yes"/>
      <point x="480" y="1228"/>
      <point x="521" y="1187"/>
      <point x="571" y="1187" type="curve" smooth="yes"/>
      <point x="621" y="1187"/>
      <point x="662" y="1228"/>
    </contour>
  </outline>
</glyph>
<glyph name="eacute" format="1">
  <advance width="1004"/>
  <unicode hex="00E9"/>
  <outline>
    <contour>
      <point x="886" y="154" type="line"/>
      <point x="886" y="0" type="line"/>
      <point x="150" y="0" type="line"/>
      <point x="150" y="1054" type="line"/>
      <point x="386" y="1190" type="line"/>
      <point x="894" y="1085" type="line"/>
      <point x="865" y="934" type="line"/>
      <point x="413" y="1028" type="line"/>
      <point x="304" y="965" type="line"/>
      <point x="304" y="613" type="line"/>
      <point x="818" y="613" type="line"/>
      <point x="818" y="459" type="line"/>
      <point x="304" y="459" type="line"/>
      <point x="304" y="154" type="line"/>
    </contour>
    <component base="acute" xOffset="373"/>
  </outline>
</glyph>
<glyph name="ecircumflex" format="1">
  <advance width="1004"/>
  <unicode hex="00EA"/>
  <outline>
    <contour>
      <point x="886" y="154" type="line"/>
      <point x="886" y="0" type="line"/>
      <point x="150" y="0" type="line"/>
      <point x="150" y="1054" type="line"/>
      <point x="386" y="1190" type="line"/>
      <point x="894" y="1085" type="line"/>
      <point x="865" y="934" type="line"/>
      <point x="413" y="1028" type="line"/>
      <point x="304" y="965" type="line"/>
      <point x="304" y="613" type="line"/>
      <point x="818" y="613" type="line"/>
      <point x="818" y="459" type="line"/>
      <point x="304" y="459" type="line"/>
      <point x="304" y="154" type="line"/>
    </contour>
    <component base="circumflex" xOffset="197"/>
  </outline>
</glyph>
<glyph name="iacute" format="1">
  <advance width="360"/>
  <unicode hex="00ED"/>
  <outline>
    <contour>
      <point x="260" y="1180" type="line"/>
      <point x="100" y="1180" type="line"/>
      <point x="100" y="0" type="line"/>
      <point x="260" y="0" type="line"/>
    </contour>
    <component base="acute" xOffset="56"/>
  </outline>
</glyph>
<glyph name="icircumflex" format="1">
  <advance width="460"/>
  <unicode hex="00EE"/>
  <outline>
    <contour>
      <point x="310" y="1180" type="line"/>
      <point x="150" y="1180" type="line"/>
      <point x="150" y="0" type="line"/>
      <point x="310" y="0" type="line"/>
    </contour>
    <component base="circumflex" xOffset="-120"/>
  </outline>
</glyph>
<glyph name="idieresis" format="1">
  <advance width="360"/>
  <unicode hex="00EF"/>
  <outline>
    <contour>
      <point x="260" y="1180" type="line"/>
      <point x="100" y="1180" type="line"/>
      <point x="100" y="0" type="line"/>
      <point x="260" y="0" type="line"/>
    </contour>
    <contour>
      <point x="112" y="1489" type="line"/>
      <point x="-33" y="1489" type="line"/>
      <point x="-33" y="1335" type="line"/>
      <point x="112" y="1335" type="line"/>
    </contour>
    <contour>
      <point x="394" y="1489" type="line"/>
      <point x="249" y="1489" type="line"/>
      <point x="249" y="1335" type="line"/>
      <point x="394" y="1335" type="line"/>
    </contour>
  </outline>
</glyph>
<glyph name="ntilde" format="1">
  <advance width="1147"/>
  <unicode hex="00F1"/>
  <outline>
    <contour>
      <point x="997" y="0" type="line"/>
      <point x="997" y="1185" type="line"/>
      <point x="837" y="1185" type="line"/>
      <point x="837" y="297" type="line"/>
      <point x="300" y="1220" type="line"/>
      <point x="150" y="1180" type="line"/>
      <point x="150" y="0" type="line"/>
      <point x="310" y="0" type="line"/>
      <point x="310" y="884" type="line"/>
      <point x="848" y="-40" type="line"/>
    </contour>
    <component base="tilde" xOffset="235"/>
  </outline>
</glyph>
<glyph name="ograve" format="1">
  <advance width="1063"/>
  <unicode hex="00F2"/>
  <outline>
    <contour>
      <point x="963" y="69" type="line"/>
      <point x="963" y="1071" type="line"/>
      <point x="342" y="1190" type="line"/>
      <point x="100" y="1051" type="line"/>
      <point x="100" y="43" type="line"/>
      <point x="720" y="-45" type="line"/>
    </contour>
    <contour>
      <point x="261" y="958" type="line"/>
      <point x="370" y="1021" type="line"/>
      <point x="803" y="938" type="line"/>
      <point x="803" y="171" type="line"/>
      <point x="695" y="120" type="line"/>
      <point x="261" y="182" type="line"/>
    </contour>
    <component base="grave" xOffset="340"/>
  </outline>
</glyph>
<glyph name="divide" format="1">
  <advance width="820"/>
  <unicode hex="00F7"/>
  <outline>
    <contour>
      <point x="700" y="790" type="line"/>
      <point x="120" y="790" type="line"/>
      <point x="120" y="653" type="line"/>
      <point x="700" y="653" type="line"/>
    </contour>
    <contour>
      <point x="482" y="575" type="line"/>
      <point x="338" y="575" type="line"/>
      <point x="338" y="421" type="line"/>
      <point x="482" y="421" type="line"/>
    </contour>
    <contour>
      <point x="482" y="1022" type="line"/>
      <point x="338" y="1022" type="line"/>
      <point x="338" y="868" type="line"/>
      <point x="482" y="868" type="line"/>
    </contour>
  </outline>
</glyph>
<glyph name="oslash" format="1">
  <advance width="1163"/>
  <unicode hex="00F8"/>
  <outline>
    <contour>
      <point x="1013" y="186" type="line"/>
      <point x="768" y="72" type="line"/>
      <point x="534" y="114" type="line"/>
      <point x="496" y="-32" type="line"/>
      <point x="344" y="8" type="line"/>
      <point x="379" y="142" type="line"/>
      <point x="150" y="183" type="line"/>
      <point x="150" y="1034" type="line"/>
      <point x="391" y="1173" type="line"/>
      <point x="636" y="1126" type="line"/>
      <point x="715" y="1432" type="line"/>
      <point x="868" y="1392" type="line"/>
      <point x="791" y="1096" type="line"/>
      <point x="1013" y="1054" type="line"/>
    </contour>
    <contour>
      <point x="596" y="970" type="line"/>
      <point x="420" y="1004" type="line"/>
      <point x="310" y="941" type="line"/>
      <point x="310" y="317" type="line"/>
      <point x="420" y="297" type="line"/>
    </contour>
    <contour>
      <point x="750" y="941" type="line"/>
      <point x="575" y="269" type="line"/>
      <point x="746" y="239" type="line"/>
      <point x="852" y="288" type="line"/>
      <point x="852" y="921" type="line"/>
    </contour>
  </outline>
</glyph>
<glyph name="udieresis" format="1">
  <advance width="1026"/>
  <unicode hex="00FC"/>
  <outline>
    <contour>
      <point x="876" y="70" type="line"/>
      <point x="876" y="1180" type="line"/>
      <point x="715" y="1180" type="line"/>
      <point x="715" y="172" type="line"/>
      <point x="610" y="122" type="line"/>
      <point x="310" y="180" type="line"/>
      <point x="310" y="1180" type="line"/>
      <point x="150" y="1180" type="line"/>
      <point x="150" y="48" type="line"/>
      <point x="630" y="-45" type="line"/>
    </contour>
    <contour>
      <point x="445" y="1489" type="line"/>
      <point x="300" y="1489" type="line"/>
      <point x="300" y="1335" type="line"/>
      <point x="445" y="1335" type="line"/>
    </contour>
    <contour>
      <point x="727" y="1489" type="line"/>
      <point x="582" y="1489" type="line"/>
      <point x="582" y="1335" type="line"/>
      <point x="727" y="1335" type="line"/>
    </contour>
  </outline>
</glyph>
<glyph name="ydieresis" format="1">
  <advance width="994"/>
  <unicode hex="00FF"/>
  <outline>
    <contour>
      <point x="567" y="459" type="line"/>
      <point x="567" y="0" type="line"/>
      <point x="397" y="0" type="line"/>
      <point x="397" y="459" type="line"/>
      <point x="401" y="459" type="line"/>
      <point x="60" y="1126" type="line"/>
      <point x="203" y="1198" type="line"/>
      <point x="485" y="646" type="line"/>
      <point x="794" y="1201" type="line"/>
      <point x="934" y="1123" type="line"/>
    </contour>
    <contour>
      <point x="417" y="1489" type="line"/>
      <point x="272" y="1489" type="line"/>
      <point x="272" y="1335" type="line"/>
      <point x="417" y="1335" type="line"/>
    </contour>
    <contour>
      <point x="699" y="1489" type="line"/>
      <point x="554" y="1489" type="line"/>
      <point x="554" y="1335" type="line"/>
      <point x="699" y="1335" type="line"/>
    </contour>
  </outline>
</glyph>
<glyph name="OE" format="1">
  <advance width="1364"/>
  <unicode hex="0152"/>
  <outline>
    <contour>
      <point x="1306" y="153" type="line"/>
      <point x="1306" y="0" type="line"/>
      <point x="648" y="0" type="line"/>
      <point x="648" y="74" type="line"/>
      <point x="548" y="-18" type="line"/>
      <point x="100" y="170" type="line"/>
      <point x="100" y="1312" type="line"/>
      <point x="346" y="1453" type="line"/>
      <point x="713" y="1347" type="line"/>
      <point x="884" y="1445" type="line"/>
      <point x="1314" y="1341" type="line"/>
      <point x="1285" y="1190" type="line"/>
      <point x="912" y="1284" type="line"/>
      <point x="802" y="1221" type="line"/>
      <point x="802" y="790" type="line"/>
      <point x="1238" y="790" type="line"/>
      <point x="1238" y="636" type="line"/>
      <point x="802" y="636" type="line"/>
      <point x="802" y="153" type="line"/>
    </contour>
    <contour>
      <point x="366" y="1280" type="line"/>
      <point x="260" y="1219" type="line"/>
      <point x="260" y="276" type="line"/>
      <point x="515" y="169" type="line"/>
      <point x="627" y="271" type="line"/>
      <point x="627" y="1205" type="line"/>
    </contour>
  </outline>
</glyph>
<glyph name="Scaron" format="1">
  <advance width="861"/>
  <unicode hex="0160"/>
  <outline>
    <contour>
      <point x="831" y="129" type="line"/>
      <point x="252" y="987" type="line"/>
      <point x="330" y="1034" type="line"/>
      <point x="743" y="944" type="line"/>
      <point x="776" y="1097" type="line"/>
      <point x="303" y="1199" type="line"/>
      <point x="30" y="1037" type="line"/>
      <point x="612" y="174" type="line"/>
      <point x="533" y="123" type="line"/>
      <point x="83" y="242" type="line"/>
      <point x="43" y="91" type="line"/>
      <point x="559" y="-45" type="line"/>
    </contour>
    <component base="caron" xOffset="87"/>
  </outline>
</glyph>
<glyph name="Zcaron" format="1">
  <advance width="956"/>
  <unicode hex="017D"/>
  <outline>
    <contour>
      <point x="869" y="47" type="line"/>
      <point x="801" y="192" type="line"/>
      <point x="647" y="120" type="line"/>
      <point x="312" y="172" type="line"/>
      <point x="926" y="1029" type="line"/>
      <point x="288" y="1161" type="line"/>
      <point x="86" y="1045" type="line"/>
      <point x="166" y="906" type="line"/>
      <point x="315" y="992" type="line"/>
      <point x="653" y="922" type="line"/>
      <point x="30" y="54" type="line"/>
      <point x="671" y="-45" type="line"/>
    </contour>
    <component base="caron" xOffset="160"/>
  </outline>
</glyph>
<glyph name="zcaron" format="1">
  <advance width="1046"/>
  <unicode hex="017E"/>
  <outline>
    <contour>
      <point x="914" y="47" type="line"/>
      <point x="846" y="192" type="line"/>
      <point x="692" y="120" type="line"/>
      <point x="357" y="172" type="line"/>
      <point x="971" y="1029" type="line"/>
      <point x="333" y="1161" type="line"/>
      <point x="131" y="1045" type="line"/>
      <point x="211" y="906" type="line"/>
      <point x="360" y="992" type="line"/>
      <point x="698" y="922" type="line"/>
      <point x="75" y="54" type="line"/>
      <point x="716" y="-45" type="line"/>
    </contour>
    <component base="caron" xOffset="155"/>
  </outline>
</glyph>
<glyph name="florin" format="1">
  <advance width="945"/>
  <unicode hex="0192"/>
  <outline>
    <contour>
      <point x="568" y="790" type="line"/>
      <point x="799" y="790" type="line"/>
      <point x="799" y="650" type="line"/>
      <point x="568" y="650" type="line"/>
      <point x="568" y="109" type="line"/>
      <point x="324" y="-45" type="line"/>
      <point x="30" y="32" type="line"/>
      <point x="70" y="183" type="line"/>
      <point x="297" y="124" type="line"/>
      <point x="408" y="195" type="line"/>
      <point x="408" y="650" type="line"/>
      <point x="175" y="650" type="line"/>
      <point x="175" y="790" type="line"/>
      <point x="408" y="790" type="line"/>
      <point x="408" y="1302" type="line"/>
      <point x="654" y="1445" type="line"/>
      <point x="915" y="1388" type="line"/>
      <point x="882" y="1235" type="line"/>
      <point x="681" y="1279" type="line"/>
      <point x="571" y="1213" type="line"/>
    </contour>
  </outline>
</glyph>
<glyph name="circumflex" format="1">
  <advance width="700"/>
  <unicode hex="02C6"/>
  <note>
    W: 140
  </note>
  <outline>
    <contour>
      <point x="350" y="1400" type="move" name="Center"/>
    </contour>
    <contour>
      <point x="181" y="1263" type="line"/>
      <point x="350" y="1372" type="line"/>
      <point x="519" y="1263" type="line"/>
      <point x="595" y="1381" type="line"/>
      <point x="350" y="1538" type="line"/>
      <point x="105" y="1381" type="line"/>
    </contour>
  </outline>
</glyph>
<glyph name="caron" format="1">
  <advance width="600"/>
  <unicode hex="02C7"/>
  <outline>
    <contour>
      <point x="300" y="1400" type="move" name="Center"/>
    </contour>
    <contour>
      <point x="469" y="1547" type="line"/>
      <point x="300" y="1438" type="line"/>
      <point x="131" y="1547" type="line"/>
      <point x="55" y="1429" type="line"/>
      <point x="300" y="1272" type="line"/>
      <point x="545" y="1429" type="line"/>
    </contour>
  </outline>
</glyph>
<glyph name="breve" format="1">
  <advance width="670"/>
  <unicode hex="02D8"/>
  <outline>
    <contour>
      <point x="565" y="1479" type="curve"/>
      <point x="426" y="1479" type="line"/>
      <point x="426" y="1429"/>
      <point x="385" y="1388"/>
      <point x="335" y="1388" type="curve" smooth="yes"/>
      <point x="284" y="1388"/>
      <point x="243" y="1429"/>
      <point x="243" y="1479" type="curve"/>
      <point x="105" y="1479" type="line"/>
      <point x="105" y="1353"/>
      <point x="208" y="1249"/>
      <point x="335" y="1249" type="curve"/>
      <point x="461" y="1249"/>
      <point x="565" y="1353"/>
    </contour>
  </outline>
</glyph>
<glyph name="dotaccent" format="1">
  <advance width="370"/>
  <unicode hex="02D9"/>
  <outline>
    <contour>
      <point x="265" y="1477" type="line"/>
      <point x="105" y="1477" type="line"/>
      <point x="105" y="1323" type="line"/>
      <point x="265" y="1323" type="line"/>
    </contour>
  </outline>
</glyph>
<glyph name="ring" format="1">
  <advance width="670"/>
  <unicode hex="02DA"/>
  <outline>
    <contour>
      <point x="335" y="1400" type="move" name="Center"/>
    </contour>
    <contour>
      <point x="565" y="1278" type="curve" smooth="yes"/>
      <point x="565" y="1151"/>
      <point x="462" y="1048"/>
      <point x="335" y="1048" type="curve"/>
      <point x="208" y="1048"/>
      <point x="105" y="1151"/>
      <point x="105" y="1278" type="curve" smooth="yes"/>
      <point x="105" y="1405"/>
      <point x="208" y="1508"/>
      <point x="335" y="1508" type="curve" smooth="yes"/>
      <point x="462" y="1508"/>
      <point x="565" y="1405"/>
    </contour>
    <contour>
      <point x="426" y="1278" type="curve" smooth="yes"/>
      <point x="426" y="1329"/>
      <point x="385" y="1369"/>
      <point x="335" y="1369" type="curve"/>
      <point x="285" y="1369"/>
      <point x="244" y="1329"/>
      <point x="244" y="1278" type="curve" smooth="yes"/>
      <point x="244" y="1228"/>
      <point x="285" y="1187"/>
      <point x="335" y="1187" type="curve" smooth="yes"/>
      <point x="385" y="1187"/>
      <point x="426" y="1228"/>
    </contour>
  </outline>
</glyph>
<glyph name="tilde" format="1">
  <advance width="675"/>
  <unicode hex="02DC"/>
  <note>
    thik:
    – 140
  </note>
  <outline>
    <contour>
      <point x="338" y="1400" type="move" name="Center"/>
    </contour>
    <contour>
      <point x="169" y="1292" type="line"/>
      <point x="225" y="1343" type="line"/>
      <point x="383" y="1274" type="line"/>
      <point x="600" y="1345" type="line"/>
      <point x="556" y="1479" type="line"/>
      <point x="387" y="1424" type="line"/>
      <point x="198" y="1507" type="line"/>
      <point x="75" y="1396" type="line"/>
    </contour>
  </outline>
</glyph>
<glyph name="hungarumlaut" format="1">
  <advance width="689"/>
  <unicode hex="02DD"/>
  <outline>
    <contour>
      <point x="365" y="1486" type="line"/>
      <point x="202" y="1486" type="line"/>
      <point x="99" y="1289" type="line"/>
      <point x="196" y="1228" type="line"/>
    </contour>
    <contour>
      <point x="654" y="1486" type="line"/>
      <point x="491" y="1486" type="line"/>
      <point x="388" y="1289" type="line"/>
      <point x="485" y="1228" type="line"/>
    </contour>
  </outline>
</glyph>
<glyph name="mu" format="1">
  <advance width="1026"/>
  <unicode hex="03BC"/>
  <outline>
    <contour>
      <point x="876" y="244" type="line"/>
      <point x="876" y="78" type="line"/>
      <point x="716" y="78" type="line"/>
      <point x="716" y="187" type="line"/>
      <point x="566" y="132" type="line"/>
      <point x="310" y="346" type="line"/>
      <point x="310" y="0" type="line"/>
      <point x="150" y="0" type="line"/>
      <point x="150" y="1400" type="line"/>
      <point x="310" y="1400" type="line"/>
      <point x="310" y="554" type="line"/>
      <point x="598" y="314" type="line"/>
      <point x="716" y="357" type="line"/>
      <point x="716" y="1400" type="line"/>
      <point x="876" y="1400" type="line"/>
    </contour>
  </outline>
</glyph>
<glyph name="endash" format="1">
  <advance width="865"/>
  <unicode hex="2013"/>
  <outline>
    <contour>
      <point x="745" y="790" type="line"/>
      <point x="120" y="790" type="line"/>
      <point x="120" y="628" type="line"/>
      <point x="745" y="628" type="line"/>
    </contour>
  </outline>
</glyph>
<glyph name="emdash" format="1">
  <advance width="986"/>
  <unicode hex="2014"/>
  <outline>
    <contour>
      <point x="916" y="790" type="line"/>
      <point x="70" y="790" type="line"/>
      <point x="70" y="628" type="line"/>
      <point x="916" y="628" type="line"/>
    </contour>
  </outline>
</glyph>
<glyph name="quoteleft" format="1">
  <advance width="389"/>
  <unicode hex="2018"/>
  <outline>
    <contour>
      <point x="328" y="1264" type="line"/>
      <point x="264" y="1406" type="line"/>
      <point x="264" y="1482" type="line"/>
      <point x="125" y="1482" type="line"/>
      <point x="125" y="1376" type="line"/>
      <point x="200" y="1207" type="line"/>
    </contour>
  </outline>
</glyph>
<glyph name="quoteright" format="1">
  <advance width="389"/>
  <unicode hex="2019"/>
  <outline>
    <contour>
      <point x="-89" y="1264" type="line"/>
      <point x="-25" y="1406" type="line"/>
      <point x="-25" y="1482" type="line"/>
      <point x="114" y="1482" type="line"/>
      <point x="114" y="1376" type="line"/>
      <point x="39" y="1207" type="line"/>
    </contour>
  </outline>
</glyph>
<glyph name="quotesinglbase" format="1">
  <advance width="289"/>
  <unicode hex="201A"/>
  <outline>
    <contour>
      <point x="-39" y="-63" type="line"/>
      <point x="25" y="79" type="line"/>
      <point x="25" y="155" type="line"/>
      <point x="164" y="155" type="line"/>
      <point x="164" y="49" type="line"/>
      <point x="89" y="-120" type="line"/>
    </contour>
  </outline>
</glyph>
<glyph name="quotedblleft" format="1">
  <advance width="624"/>
  <unicode hex="201C"/>
  <outline>
    <contour>
      <point x="328" y="1264" type="line"/>
      <point x="264" y="1406" type="line"/>
      <point x="264" y="1482" type="line"/>
      <point x="125" y="1482" type="line"/>
      <point x="125" y="1376" type="line"/>
      <point x="200" y="1207" type="line"/>
    </contour>
    <contour>
      <point x="563" y="1264" type="line"/>
      <point x="499" y="1406" type="line"/>
      <point x="499" y="1482" type="line"/>
      <point x="360" y="1482" type="line"/>
      <point x="360" y="1376" type="line"/>
      <point x="435" y="1207" type="line"/>
    </contour>
  </outline>
</glyph>
<glyph name="quotedblright" format="1">
  <advance width="524"/>
  <unicode hex="201D"/>
  <outline>
    <contour>
      <point x="-39" y="1264" type="line"/>
      <point x="25" y="1406" type="line"/>
      <point x="25" y="1482" type="line"/>
      <point x="164" y="1482" type="line"/>
      <point x="164" y="1376" type="line"/>
      <point x="89" y="1207" type="line"/>
    </contour>
    <contour>
      <point x="196" y="1264" type="line"/>
      <point x="260" y="1406" type="line"/>
      <point x="260" y="1482" type="line"/>
      <point x="399" y="1482" type="line"/>
      <point x="399" y="1376" type="line"/>
      <point x="324" y="1207" type="line"/>
    </contour>
  </outline>
</glyph>
<glyph name="quotedblbase" format="1">
  <advance width="624"/>
  <unicode hex="201E"/>
  <outline>
    <contour>
      <point x="146" y="-63" type="line"/>
      <point x="210" y="79" type="line"/>
      <point x="210" y="155" type="line"/>
      <point x="349" y="155" type="line"/>
      <point x="349" y="49" type="line"/>
      <point x="274" y="-120" type="line"/>
    </contour>
    <contour>
      <point x="-89" y="-63" type="line"/>
      <point x="-25" y="79" type="line"/>
      <point x="-25" y="155" type="line"/>
      <point x="114" y="155" type="line"/>
      <point x="114" y="49" type="line"/>
      <point x="39" y="-120" type="line"/>
    </contour>
  </outline>
</glyph>
<glyph name="dagger" format="1">
  <advance width="744"/>
  <unicode hex="2020"/>
  <outline>
    <contour>
      <point x="684" y="790" type="line"/>
      <point x="684" y="650" type="line"/>
      <point x="433" y="650" type="line"/>
      <point x="433" y="0" type="line"/>
      <point x="293" y="0" type="line"/>
      <point x="293" y="650" type="line"/>
      <point x="60" y="650" type="line"/>
      <point x="60" y="790" type="line"/>
      <point x="293" y="790" type="line"/>
      <point x="293" y="1400" type="line"/>
      <point x="433" y="1400" type="line"/>
      <point x="433" y="790" type="line"/>
    </contour>
  </outline>
</glyph>
<glyph name="daggerdbl" format="1">
  <advance width="845"/>
  <unicode hex="2021"/>
  <outline>
    <contour>
      <point x="483" y="497" type="line"/>
      <point x="735" y="497" type="line"/>
      <point x="735" y="357" type="line"/>
      <point x="483" y="357" type="line"/>
      <point x="483" y="0" type="line"/>
      <point x="343" y="0" type="line"/>
      <point x="343" y="357" type="line"/>
      <point x="110" y="357" type="line"/>
      <point x="110" y="497" type="line"/>
      <point x="343" y="497" type="line"/>
      <point x="343" y="650" type="line"/>
      <point x="110" y="650" type="line"/>
      <point x="110" y="790" type="line"/>
      <point x="343" y="790" type="line"/>
      <point x="343" y="1400" type="line"/>
      <point x="483" y="1400" type="line"/>
      <point x="483" y="790" type="line"/>
      <point x="735" y="790" type="line"/>
      <point x="735" y="650" type="line"/>
      <point x="483" y="650" type="line"/>
    </contour>
  </outline>
</glyph>
<glyph name="bullet" format="1">
  <advance width="544"/>
  <unicode hex="2022"/>
  <outline>
    <contour>
      <point x="272" y="890" type="curve" smooth="yes"/>
      <point x="166" y="890"/>
      <point x="80" y="805"/>
      <point x="80" y="699" type="curve" smooth="yes"/>
      <point x="80" y="593"/>
      <point x="166" y="507"/>
      <point x="272" y="507" type="curve" smooth="yes"/>
      <point x="378" y="507"/>
      <point x="464" y="593"/>
      <point x="464" y="699" type="curve" smooth="yes"/>
      <point x="464" y="805"/>
      <point x="378" y="890"/>
    </contour>
  </outline>
</glyph>
<glyph name="ellipsis" format="1">
  <advance width="831"/>
  <unicode hex="2026"/>
  <outline>
    <contour>
      <point x="482" y="154" type="line"/>
      <point x="337" y="154" type="line"/>
      <point x="337" y="0" type="line"/>
      <point x="482" y="0" type="line"/>
    </contour>
    <contour>
      <point x="199" y="154" type="line"/>
      <point x="54" y="154" type="line"/>
      <point x="54" y="0" type="line"/>
      <point x="199" y="0" type="line"/>
    </contour>
    <contour>
      <point x="765" y="154" type="line"/>
      <point x="620" y="154" type="line"/>
      <point x="620" y="0" type="line"/>
      <point x="765" y="0" type="line"/>
    </contour>
  </outline>
</glyph>
<glyph name="perthousand" format="1">
  <advance width="1393"/>
  <unicode hex="2030"/>
  <outline>
    <contour>
      <point x="1045" y="206" type="curve" smooth="yes"/>
      <point x="1045" y="333"/>
      <point x="942" y="437"/>
      <point x="814" y="437" type="curve" smooth="yes"/>
      <point x="687" y="437"/>
      <point x="584" y="333"/>
      <point x="584" y="206" type="curve" smooth="yes"/>
      <point x="584" y="79"/>
      <point x="687" y="-25"/>
      <point x="814" y="-25" type="curve"/>
      <point x="942" y="-25"/>
      <point x="1045" y="79"/>
    </contour>
    <contour>
      <point x="906" y="206" type="curve" smooth="yes"/>
      <point x="906" y="155"/>
      <point x="865" y="114"/>
      <point x="814" y="114" type="curve" smooth="yes"/>
      <point x="764" y="114"/>
      <point x="722" y="155"/>
      <point x="722" y="206" type="curve" smooth="yes"/>
      <point x="722" y="257"/>
      <point x="764" y="298"/>
      <point x="814" y="298" type="curve"/>
      <point x="865" y="298"/>
      <point x="906" y="257"/>
    </contour>
    <contour>
      <point x="1273" y="734" type="curve" smooth="yes"/>
      <point x="1273" y="861"/>
      <point x="1169" y="963"/>
      <point x="1042" y="963" type="curve" smooth="yes"/>
      <point x="915" y="963"/>
      <point x="811" y="861"/>
      <point x="811" y="734" type="curve" smooth="yes"/>
      <point x="811" y="606"/>
      <point x="915" y="503"/>
      <point x="1042" y="503" type="curve"/>
      <point x="1169" y="503"/>
      <point x="1273" y="606"/>
    </contour>
    <contour>
      <point x="1134" y="734" type="curve" smooth="yes"/>
      <point x="1134" y="683"/>
      <point x="1093" y="642"/>
      <point x="1042" y="642" type="curve" smooth="yes"/>
      <point x="991" y="642"/>
      <point x="950" y="683"/>
      <point x="950" y="734" type="curve" smooth="yes"/>
      <point x="950" y="784"/>
      <point x="991" y="826"/>
      <point x="1042" y="826" type="curve"/>
      <point x="1093" y="826"/>
      <point x="1134" y="784"/>
    </contour>
    <contour>
      <point x="571" y="1194" type="curve" smooth="yes"/>
      <point x="571" y="1321"/>
      <point x="468" y="1425"/>
      <point x="341" y="1425" type="curve" smooth="yes"/>
      <point x="213" y="1425"/>
      <point x="110" y="1321"/>
      <point x="110" y="1194" type="curve" smooth="yes"/>
      <point x="110" y="1067"/>
      <point x="213" y="963"/>
      <point x="341" y="963" type="curve"/>
      <point x="468" y="963"/>
      <point x="571" y="1067"/>
    </contour>
    <contour>
      <point x="433" y="1194" type="curve" smooth="yes"/>
      <point x="433" y="1143"/>
      <point x="391" y="1102"/>
      <point x="341" y="1102" type="curve" smooth="yes"/>
      <point x="290" y="1102"/>
      <point x="249" y="1143"/>
      <point x="249" y="1194" type="curve" smooth="yes"/>
      <point x="249" y="1245"/>
      <point x="290" y="1286"/>
      <point x="341" y="1286" type="curve"/>
      <point x="391" y="1286"/>
      <point x="433" y="1245"/>
    </contour>
    <component base="fraction" xOffset="194"/>
  </outline>
</glyph>
<glyph name="guilsinglleft" format="1">
  <advance width="591"/>
  <unicode hex="2039"/>
  <outline>
    <contour>
      <point x="471" y="381" type="line"/>
      <point x="305" y="628" type="line"/>
      <point x="466" y="867" type="line"/>
      <point x="331" y="956" type="line"/>
      <point x="110" y="628" type="line"/>
      <point x="337" y="290" type="line"/>
    </contour>
  </outline>
</glyph>
<glyph name="guilsinglright" format="1">
  <advance width="591"/>
  <unicode hex="203A"/>
  <outline>
    <contour>
      <point x="120" y="381" type="line"/>
      <point x="286" y="628" type="line"/>
      <point x="125" y="867" type="line"/>
      <point x="260" y="956" type="line"/>
      <point x="481" y="628" type="line"/>
      <point x="254" y="290" type="line"/>
    </contour>
  </outline>
</glyph>
<glyph name="fraction" format="1">
  <advance width="759"/>
  <unicode hex="2044"/>
  <outline>
    <contour>
      <point x="759" y="1378" type="line"/>
      <point x="615" y="1441" type="line"/>
      <point x="0" y="21" type="line"/>
      <point x="145" y="-41" type="line"/>
      <point x="145" y="-41" type="line"/>
    </contour>
  </outline>
</glyph>
<glyph name="Euro" format="1">
  <advance width="1035"/>
  <unicode hex="20AC"/>
  <outline>
    <contour>
      <point x="965" y="59" type="line"/>
      <point x="457" y="-45" type="line"/>
      <point x="221" y="90" type="line"/>
      <point x="221" y="366" type="line"/>
      <point x="70" y="366" type="line"/>
      <point x="70" y="520" type="line"/>
      <point x="221" y="520" type="line"/>
      <point x="221" y="636" type="line"/>
      <point x="70" y="636" type="line"/>
      <point x="70" y="790" type="line"/>
      <point x="221" y="790" type="line"/>
      <point x="221" y="1309" type="line"/>
      <point x="457" y="1445" type="line"/>
      <point x="965" y="1340" type="line"/>
      <point x="936" y="1189" type="line"/>
      <point x="484" y="1283" type="line"/>
      <point x="374" y="1220" type="line"/>
      <point x="374" y="790" type="line"/>
      <point x="889" y="790" type="line"/>
      <point x="889" y="636" type="line"/>
      <point x="374" y="636" type="line"/>
      <point x="374" y="520" type="line"/>
      <point x="889" y="520" type="line"/>
      <point x="889" y="366" type="line"/>
      <point x="374" y="366" type="line"/>
      <point x="374" y="179" type="line"/>
      <point x="484" y="116" type="line"/>
      <point x="936" y="210" type="line"/>
    </contour>
  </outline>
</glyph>
<glyph name="trademark" format="1">
  <advance width="1356"/>
  <unicode hex="2122"/>
  <outline>
    <contour>
      <point x="604" y="1280" type="line"/>
      <point x="426" y="1280" type="line"/>
      <point x="426" y="727" type="line"/>
      <point x="287" y="727" type="line"/>
      <point x="287" y="1280" type="line"/>
      <point x="110" y="1280" type="line"/>
      <point x="110" y="1400" type="line"/>
      <point x="604" y="1400" type="line"/>
    </contour>
    <contour>
      <point x="1226" y="1366" type="line"/>
      <point x="1108" y="1400" type="line"/>
      <point x="960" y="1157" type="line"/>
      <point x="811" y="1400" type="line"/>
      <point x="694" y="1366" type="line"/>
      <point x="694" y="727" type="line"/>
      <point x="821" y="727" type="line"/>
      <point x="821" y="1141" type="line"/>
      <point x="960" y="915" type="line"/>
      <point x="1099" y="1141" type="line"/>
      <point x="1099" y="727" type="line"/>
      <point x="1226" y="727" type="line"/>
    </contour>
  </outline>
</glyph>
<glyph name="minus" format="1">
  <advance width="720"/>
  <unicode hex="2212"/>
  <outline>
    <contour>
      <point x="650" y="790" type="line"/>
      <point x="70" y="790" type="line"/>
      <point x="70" y="628" type="line"/>
      <point x="650" y="628" type="line"/>
    </contour>
  </outline>
</glyph>
<glyph name="SplitBeam" format="1">
  <advance width="2611"/>
  <unicode hex="E000"/>
  <outline>
    <contour>
      <point x="1442" y="470" type="line"/>
      <point x="1019" y="561" type="line"/>
      <point x="968" y="494"/>
      <point x="889" y="451"/>
      <point x="799" y="451" type="curve" smooth="yes"/>
      <point x="710" y="451"/>
      <point x="631" y="493"/>
      <point x="581" y="559" type="curve"/>
      <point x="170" y="470" type="line"/>
      <point x="145" y="585" type="line"/>
      <point x="530" y="668" type="line"/>
      <point x="526" y="687"/>
      <point x="523" y="706"/>
      <point x="523" y="727" type="curve" smooth="yes"/>
      <point x="523" y="743"/>
      <point x="525" y="758"/>
      <point x="527" y="773" type="curve"/>
      <point x="152" y="854" type="line"/>
      <point x="176" y="967" type="line"/>
      <point x="572" y="883" type="line"/>
      <point x="622" y="954"/>
      <point x="705" y="1001"/>
      <point x="799" y="1001" type="curve" smooth="yes"/>
      <point x="894" y="1001"/>
      <point x="977" y="953"/>
      <point x="1027" y="881" type="curve"/>
      <point x="1435" y="967" type="line"/>
      <point x="1460" y="854" type="line"/>
      <point x="1071" y="770" type="line"/>
      <point x="1073" y="756"/>
      <point x="1074" y="742"/>
      <point x="1074" y="727" type="curve" smooth="yes"/>
      <point x="1074" y="707"/>
      <point x="1072" y="689"/>
      <point x="1069" y="670" type="curve"/>
      <point x="1466" y="585" type="line"/>
    </contour>
    <contour>
      <point x="703" y="558" type="curve" smooth="yes"/>
      <point x="723" y="547"/>
      <point x="744" y="540"/>
      <point x="767" y="536" type="curve"/>
      <point x="732" y="566"/>
      <point x="715" y="646"/>
      <point x="715" y="726" type="curve" smooth="yes"/>
      <point x="715" y="807"/>
      <point x="732" y="887"/>
      <point x="768" y="917" type="curve"/>
      <point x="737" y="912"/>
      <point x="709" y="900"/>
      <point x="686" y="883" type="curve" smooth="yes"/>
      <point x="637" y="848"/>
      <point x="605" y="791"/>
      <point x="605" y="727" type="curve" smooth="yes"/>
      <point x="605" y="655"/>
      <point x="645" y="592"/>
    </contour>
    <contour>
      <point x="899" y="561" type="curve" smooth="yes"/>
      <point x="955" y="595"/>
      <point x="992" y="656"/>
      <point x="992" y="727" type="curve" smooth="yes"/>
      <point x="992" y="789"/>
      <point x="962" y="845"/>
      <point x="916" y="881" type="curve"/>
      <point x="891" y="898"/>
      <point x="862" y="911"/>
      <point x="830" y="917" type="curve"/>
      <point x="865" y="887"/>
      <point x="883" y="807"/>
      <point x="883" y="727" type="curve" smooth="yes"/>
      <point x="883" y="647"/>
      <point x="865" y="566"/>
      <point x="830" y="536" type="curve"/>
      <point x="855" y="540"/>
      <point x="878" y="549"/>
    </contour>
    <contour>
      <point x="2095" y="558" type="curve" smooth="yes"/>
      <point x="2115" y="547"/>
      <point x="2136" y="540"/>
      <point x="2159" y="536" type="curve"/>
      <point x="2124" y="566"/>
      <point x="2107" y="646"/>
      <point x="2107" y="726" type="curve" smooth="yes"/>
      <point x="2107" y="807"/>
      <point x="2124" y="887"/>
      <point x="2160" y="917" type="curve"/>
      <point x="2129" y="912"/>
      <point x="2101" y="900"/>
      <point x="2078" y="883" type="curve" smooth="yes"/>
      <point x="2029" y="848"/>
      <point x="1997" y="791"/>
      <point x="1997" y="727" type="curve" smooth="yes"/>
      <point x="1997" y="655"/>
      <point x="2037" y="592"/>
    </contour>
    <contour>
      <point x="2291" y="561" type="curve" smooth="yes"/>
      <point x="2347" y="595"/>
      <point x="2385" y="656"/>
      <point x="2385" y="727" type="curve" smooth="yes"/>
      <point x="2385" y="789"/>
      <point x="2354" y="845"/>
      <point x="2308" y="881" type="curve"/>
      <point x="2283" y="898"/>
      <point x="2254" y="911"/>
      <point x="2222" y="917" type="curve"/>
      <point x="2257" y="887"/>
      <point x="2275" y="807"/>
      <point x="2275" y="727" type="curve" smooth="yes"/>
      <point x="2275" y="647"/>
      <point x="2257" y="566"/>
      <point x="2222" y="536" type="curve"/>
      <point x="2247" y="540"/>
      <point x="2270" y="549"/>
    </contour>
    <contour>
      <point x="2461" y="670" type="curve"/>
      <point x="2452" y="630"/>
      <point x="2435" y="593"/>
      <point x="2411" y="561" type="curve" smooth="yes"/>
      <point x="2361" y="494"/>
      <point x="2281" y="451"/>
      <point x="2191" y="451" type="curve" smooth="yes"/>
      <point x="2059" y="451"/>
      <point x="1949" y="543"/>
      <point x="1922" y="668" type="curve" smooth="yes"/>
      <point x="1918" y="687"/>
      <point x="1915" y="706"/>
      <point x="1915" y="727" type="curve" smooth="yes"/>
      <point x="1915" y="743"/>
      <point x="1917" y="758"/>
      <point x="1919" y="773" type="curve" smooth="yes"/>
      <point x="1926" y="814"/>
      <point x="1942" y="851"/>
      <point x="1964" y="883" type="curve" smooth="yes"/>
      <point x="2014" y="954"/>
      <point x="2097" y="1001"/>
      <point x="2191" y="1001" type="curve" smooth="yes"/>
      <point x="2286" y="1001"/>
      <point x="2370" y="953"/>
      <point x="2419" y="881" type="curve" smooth="yes"/>
      <point x="2441" y="848"/>
      <point x="2456" y="811"/>
      <point x="2463" y="770" type="curve" smooth="yes"/>
      <point x="2465" y="756"/>
      <point x="2466" y="742"/>
      <point x="2466" y="727" type="curve" smooth="yes"/>
      <point x="2466" y="707"/>
      <point x="2464" y="689"/>
    </contour>
  </outline>
</glyph>
<glyph name="zero.fitted" format="1">
  <advance width="937"/>
  <unicode hex="F639"/>
  <outline>
    <contour>
      <point x="787" y="50" type="line"/>
      <point x="478" y="-45" type="line"/>
      <point x="150" y="15" type="line"/>
      <point x="150" y="1334" type="line"/>
      <point x="396" y="1445" type="line"/>
      <point x="787" y="1344" type="line"/>
    </contour>
    <contour>
      <point x="627" y="1220" type="line"/>
      <point x="411" y="1276" type="line"/>
      <point x="310" y="1231" type="line"/>
      <point x="310" y="149" type="line"/>
      <point x="468" y="119" type="line"/>
      <point x="627" y="168" type="line"/>
    </contour>
  </outline>
</glyph>
<glyph name="two.fitted" format="1">
  <advance width="857"/>
  <unicode hex="F63A"/>
  <outline>
    <contour>
      <point x="752" y="1315" type="line"/>
      <point x="752" y="633" type="line"/>
      <point x="253" y="357" type="line"/>
      <point x="253" y="160" type="line"/>
      <point x="742" y="160" type="line"/>
      <point x="742" y="0" type="line"/>
      <point x="93" y="0" type="line"/>
      <point x="93" y="452" type="line"/>
      <point x="592" y="728" type="line"/>
      <point x="592" y="1193" type="line"/>
      <point x="318" y="1271" type="line"/>
      <point x="172" y="1185" type="line"/>
      <point x="90" y="1324" type="line"/>
      <point x="295" y="1445" type="line"/>
    </contour>
  </outline>
</glyph>
<glyph name="three.fitted" format="1">
  <advance width="955"/>
  <unicode hex="F63B"/>
  <outline>
    <contour>
      <point x="805" y="90" type="line"/>
      <point x="569" y="-45" type="line"/>
      <point x="100" y="59" type="line"/>
      <point x="129" y="210" type="line"/>
      <point x="542" y="116" type="line"/>
      <point x="651" y="179" type="line"/>
      <point x="651" y="636" type="line"/>
      <point x="313" y="636" type="line"/>
      <point x="313" y="790" type="line"/>
      <point x="651" y="790" type="line"/>
      <point x="651" y="1221" type="line"/>
      <point x="542" y="1284" type="line"/>
      <point x="168" y="1190" type="line"/>
      <point x="139" y="1341" type="line"/>
      <point x="569" y="1445" type="line"/>
      <point x="805" y="1310" type="line"/>
    </contour>
  </outline>
</glyph>
<glyph name="five.fitted" format="1">
  <advance width="964"/>
  <unicode hex="F63D"/>
  <outline>
    <contour>
      <point x="839" y="790" type="line"/>
      <point x="824" y="51" type="line"/>
      <point x="515" y="-45" type="line"/>
      <point x="132" y="41" type="line"/>
      <point x="167" y="198" type="line"/>
      <point x="508" y="121" type="line"/>
      <point x="666" y="170" type="line"/>
      <point x="675" y="630" type="line"/>
      <point x="130" y="630" type="line"/>
      <point x="130" y="1400" type="line"/>
      <point x="799" y="1400" type="line"/>
      <point x="799" y="1240" type="line"/>
      <point x="290" y="1240" type="line"/>
      <point x="290" y="790" type="line"/>
    </contour>
  </outline>
</glyph>
<glyph name="six.fitted" format="1">
  <advance width="1014"/>
  <unicode hex="F63E"/>
  <outline>
    <contour>
      <point x="884" y="790" type="line"/>
      <point x="884" y="64" type="line"/>
      <point x="641" y="-45" type="line"/>
      <point x="150" y="50" type="line"/>
      <point x="150" y="1400" type="line"/>
      <point x="855" y="1400" type="line"/>
      <point x="855" y="1240" type="line"/>
      <point x="310" y="1240" type="line"/>
      <point x="310" y="790" type="line"/>
    </contour>
    <contour>
      <point x="310" y="182" type="line"/>
      <point x="621" y="122" type="line"/>
      <point x="724" y="168" type="line"/>
      <point x="724" y="630" type="line"/>
      <point x="310" y="630" type="line"/>
    </contour>
  </outline>
</glyph>
<glyph name="seven.fitted" format="1">
  <advance width="935"/>
  <unicode hex="F63F"/>
  <outline>
    <contour>
      <point x="688" y="788" type="line"/>
      <point x="760" y="822" type="line"/>
      <point x="828" y="676" type="line"/>
      <point x="636" y="587" type="line"/>
      <point x="481" y="-19" type="line"/>
      <point x="329" y="20" type="line"/>
      <point x="479" y="608" type="line"/>
      <point x="279" y="640" type="line"/>
      <point x="305" y="798" type="line"/>
      <point x="519" y="764" type="line"/>
      <point x="642" y="1243" type="line"/>
      <point x="80" y="1243" type="line"/>
      <point x="80" y="1400" type="line"/>
      <point x="845" y="1400" type="line"/>
    </contour>
  </outline>
</glyph>
<glyph name="eight.fitted" format="1">
  <advance width="1020"/>
  <unicode hex="F640"/>
  <outline>
    <contour>
      <point x="197" y="1385" type="line"/>
      <point x="511" y="1445" type="line"/>
      <point x="823" y="1385" type="line"/>
      <point x="823" y="637" type="line"/>
      <point x="766" y="610" type="line"/>
      <point x="880" y="564" type="line"/>
      <point x="880" y="0" type="line"/>
      <point x="140" y="0" type="line"/>
      <point x="140" y="564" type="line"/>
      <point x="254" y="610" type="line"/>
      <point x="197" y="637" type="line"/>
    </contour>
    <contour>
      <point x="353" y="1256" type="line"/>
      <point x="353" y="736" type="line"/>
      <point x="511" y="677" type="line"/>
      <point x="667" y="736" type="line"/>
      <point x="667" y="1256" type="line"/>
      <point x="511" y="1284" type="line"/>
    </contour>
    <contour>
      <point x="296" y="459" type="line"/>
      <point x="296" y="156" type="line"/>
      <point x="724" y="156" type="line"/>
      <point x="724" y="459" type="line"/>
      <point x="511" y="532" type="line"/>
    </contour>
  </outline>
</glyph>
<glyph name="nine.fitted" format="1">
  <advance width="916"/>
  <unicode hex="F641"/>
  <outline>
    <contour>
      <point x="457" y="-45" type="line"/>
      <point x="135" y="14" type="line"/>
      <point x="165" y="172" type="line"/>
      <point x="448" y="119" type="line"/>
      <point x="606" y="168" type="line"/>
      <point x="606" y="629" type="line"/>
      <point x="130" y="629" type="line"/>
      <point x="130" y="1334" type="line"/>
      <point x="376" y="1445" type="line"/>
      <point x="766" y="1344" type="line"/>
      <point x="766" y="50" type="line"/>
    </contour>
    <contour>
      <point x="606" y="790" type="line"/>
      <point x="606" y="1220" type="line"/>
      <point x="390" y="1276" type="line"/>
      <point x="290" y="1231" type="line"/>
      <point x="290" y="790" type="line"/>
    </contour>
  </outline>
</glyph>
<glyph name="one.fitted" format="1">
  <advance width="608"/>
  <unicode hex="F6DC"/>
  <outline>
    <contour>
      <point x="458" y="1373" type="line"/>
      <point x="458" y="0" type="line"/>
      <point x="298" y="0" type="line"/>
      <point x="298" y="1245" type="line"/>
      <point x="160" y="1178" type="line"/>
      <point x="90" y="1322" type="line"/>
      <point x="343" y="1445" type="line"/>
    </contour>
  </outline>
</glyph>
